<svg xmlns="http://www.w3.org/2000/svg" id="export" class="canvas" preserveAspectRatio="xMidYMid meet" style="position: absolute; margin: 0px;" width="125" height="1406"><rect id="background" fill="#fff" pointer-events="all" width="125" height="1406"/><g id="origin" transform="translate(5.638280868530273, 5.638280868530273) scale(1)"><g id="clusters" class="clusters"/><g id="edge-paths" class="edge-paths"><defs><marker id="arrowhead-vee" viewBox="0 0 10 10" refX="9" refY="5" markerUnits="strokeWidth" markerWidth="8" markerHeight="6" orient="auto" style="fill: rgb(0, 0, 0);"><path d="M 0 0 L 10 5 L 0 10 L 4 5 z" style="stroke-width: 1;"/></marker><marker id="arrowhead-vee-select" viewBox="0 0 10 10" refX="9" refY="5" markerUnits="strokeWidth" markerWidth="8" markerHeight="6" orient="auto" style="fill: rgb(238, 0, 0);"><path d="M 0 0 L 10 5 L 0 10 L 4 5 z" style="stroke-width: 1;"/></marker></defs><path id="edge-conv2d_input&#10;31" class="edge-path" d="M50,20L50,23.416666666666668C50,26.833333333333332,50,33.666666666666664,50,40.5C50,47.333333333333336,50,54.166666666666664,50,57.583333333333336L50,61" style="stroke: rgb(0, 0, 0); stroke-width: 1px; fill: none; marker-end: url(&quot;#arrowhead-vee&quot;);"/><path id="edge-conv2d_input_int8&#10;0" class="edge-path" d="M50,81L50,84.41666666666667C50,87.83333333333333,50,94.66666666666667,50,101.5C50,108.33333333333333,50,115.16666666666667,50,118.58333333333333L50,122" style="stroke: rgb(0, 0, 0); stroke-width: 1px; fill: none; marker-end: url(&quot;#arrowhead-vee&quot;);"/><path id="edge-sequential/conv2d/Relu;sequential/conv2d/BiasAdd;sequential/conv2d_1/Conv2D;sequential/conv2d/Conv2D;sequential/conv2d/BiasAdd/ReadVariableOp/resource&#10;18" class="edge-path" d="M50,192L50,195.41666666666666C50,198.83333333333334,50,205.66666666666666,50,212.5C50,219.33333333333334,50,226.16666666666666,50,229.58333333333334L50,233" style="stroke: rgb(0, 0, 0); stroke-width: 1px; fill: none; marker-end: url(&quot;#arrowhead-vee&quot;);"/><path id="edge-sequential/conv2d_1/Relu;sequential/conv2d_1/BiasAdd;sequential/conv2d_1/Conv2D;sequential/conv2d_1/BiasAdd/ReadVariableOp/resource&#10;19" class="edge-path" d="M50,303L50,306.4166666666667C50,309.8333333333333,50,316.6666666666667,50,323.5C50,330.3333333333333,50,337.1666666666667,50,340.5833333333333L50,344" style="stroke: rgb(0, 0, 0); stroke-width: 1px; fill: none; marker-end: url(&quot;#arrowhead-vee&quot;);"/><path id="edge-sequential/max_pooling2d/MaxPool&#10;20" class="edge-path" d="M50,364L50,367.4166666666667C50,370.8333333333333,50,377.6666666666667,50,384.5C50,391.3333333333333,50,398.1666666666667,50,401.5833333333333L50,405" style="stroke: rgb(0, 0, 0); stroke-width: 1px; fill: none; marker-end: url(&quot;#arrowhead-vee&quot;);"/><path id="edge-sequential/conv2d_2/Relu;sequential/conv2d_2/BiasAdd;sequential/conv2d_3/Conv2D;sequential/conv2d_2/Conv2D;sequential/conv2d_2/BiasAdd/ReadVariableOp/resource&#10;21" class="edge-path" d="M50,475L50,478.4166666666667C50,481.8333333333333,50,488.6666666666667,50,495.5C50,502.3333333333333,50,509.1666666666667,50,512.5833333333334L50,516" style="stroke: rgb(0, 0, 0); stroke-width: 1px; fill: none; marker-end: url(&quot;#arrowhead-vee&quot;);"/><path id="edge-sequential/conv2d_3/Relu;sequential/conv2d_3/BiasAdd;sequential/conv2d_3/Conv2D;sequential/conv2d_3/BiasAdd/ReadVariableOp/resource&#10;22" class="edge-path" d="M50,586L50,589.4166666666666C50,592.8333333333334,50,599.6666666666666,50,606.5C50,613.3333333333334,50,620.1666666666666,50,623.5833333333334L50,627" style="stroke: rgb(0, 0, 0); stroke-width: 1px; fill: none; marker-end: url(&quot;#arrowhead-vee&quot;);"/><path id="edge-sequential/max_pooling2d_1/MaxPool&#10;23" class="edge-path" d="M50,647L50,650.4166666666666C50,653.8333333333334,50,660.6666666666666,50,667.5C50,674.3333333333334,50,681.1666666666666,50,684.5833333333334L50,688" style="stroke: rgb(0, 0, 0); stroke-width: 1px; fill: none; marker-end: url(&quot;#arrowhead-vee&quot;);"/><path id="edge-sequential/conv2d_4/Relu;sequential/conv2d_4/BiasAdd;sequential/conv2d_5/Conv2D;sequential/conv2d_4/Conv2D;sequential/conv2d_4/BiasAdd/ReadVariableOp/resource&#10;24" class="edge-path" d="M50,758L50,761.4166666666666C50,764.8333333333334,50,771.6666666666666,50,778.5C50,785.3333333333334,50,792.1666666666666,50,795.5833333333334L50,799" style="stroke: rgb(0, 0, 0); stroke-width: 1px; fill: none; marker-end: url(&quot;#arrowhead-vee&quot;);"/><path id="edge-sequential/conv2d_5/Relu;sequential/conv2d_5/BiasAdd;sequential/conv2d_5/Conv2D;sequential/conv2d_5/BiasAdd/ReadVariableOp/resource&#10;25" class="edge-path" d="M50,869L50,872.4166666666666C50,875.8333333333334,50,882.6666666666666,50,889.5C50,896.3333333333334,50,903.1666666666666,50,906.5833333333334L50,910" style="stroke: rgb(0, 0, 0); stroke-width: 1px; fill: none; marker-end: url(&quot;#arrowhead-vee&quot;);"/><path id="edge-sequential/max_pooling2d_2/MaxPool&#10;26" class="edge-path" d="M50,930L50,933.4166666666666C50,936.8333333333334,50,943.6666666666666,50,950.5C50,957.3333333333334,50,964.1666666666666,50,967.5833333333334L50,971" style="stroke: rgb(0, 0, 0); stroke-width: 1px; fill: none; marker-end: url(&quot;#arrowhead-vee&quot;);"/><path id="edge-sequential/flatten/Reshape&#10;27" class="edge-path" d="M50,1009L50,1012.4166666666666C50,1015.8333333333334,50,1022.6666666666666,50,1029.5C50,1036.3333333333333,50,1043.1666666666667,50,1046.5833333333333L50,1050" style="stroke: rgb(0, 0, 0); stroke-width: 1px; fill: none; marker-end: url(&quot;#arrowhead-vee&quot;);"/><path id="edge-sequential/dense/Relu;sequential/dense/BiasAdd&#10;28" class="edge-path" d="M50,1120L50,1123.4166666666667C50,1126.8333333333333,50,1133.6666666666667,50,1140.5C50,1147.3333333333333,50,1154.1666666666667,50,1157.5833333333333L50,1161" style="stroke: rgb(0, 0, 0); stroke-width: 1px; fill: none; marker-end: url(&quot;#arrowhead-vee&quot;);"/><path id="edge-sequential/dense_1/BiasAdd&#10;29" class="edge-path" d="M50,1211L50,1214.4166666666667C50,1217.8333333333333,50,1224.6666666666667,50,1231.5C50,1238.3333333333333,50,1245.1666666666667,50,1248.5833333333333L50,1252" style="stroke: rgb(0, 0, 0); stroke-width: 1px; fill: none; marker-end: url(&quot;#arrowhead-vee&quot;);"/><path id="edge-Identity_int8&#10;30" class="edge-path" d="M50,1272L50,1275.4166666666667C50,1278.8333333333333,50,1285.6666666666667,50,1292.5C50,1299.3333333333333,50,1306.1666666666667,50,1309.5833333333333L50,1313" style="stroke: rgb(0, 0, 0); stroke-width: 1px; fill: none; marker-end: url(&quot;#arrowhead-vee&quot;);"/><path id="edge-Identity&#10;32" class="edge-path" d="M50,1333L50,1336.4166666666667C50,1339.8333333333333,50,1346.6666666666667,50,1353.5C50,1360.3333333333333,50,1367.1666666666667,50,1370.5833333333333L50,1374" style="stroke: rgb(0, 0, 0); stroke-width: 1px; fill: none; marker-end: url(&quot;#arrowhead-vee&quot;);"/></g><g id="edge-labels" class="edge-labels"><g class="edge-label" id="edge-label-edge-conv2d_input&#10;31" transform="translate(80.3828125,40.5)" style="opacity: 1;"><g transform="translate(-25.3828125,-5.5)"><text style="font-family: -apple-system, BlinkMacSystemFont, &quot;Segoe WPC&quot;, &quot;Segoe UI&quot;, Ubuntu, &quot;Droid Sans&quot;, sans-serif, &quot;PingFang SC&quot;; font-size: 10px;"><tspan xml:space="preserve" dy="1em" x="1">1×32×32×3</tspan></text></g></g><g class="edge-label" id="edge-label-edge-conv2d_input_int8&#10;0" transform="translate(80.3828125,101.5)" style="opacity: 1;"><g transform="translate(-25.3828125,-5.5)"><text style="font-family: -apple-system, BlinkMacSystemFont, &quot;Segoe WPC&quot;, &quot;Segoe UI&quot;, Ubuntu, &quot;Droid Sans&quot;, sans-serif, &quot;PingFang SC&quot;; font-size: 10px;"><tspan xml:space="preserve" dy="1em" x="1">1×32×32×3</tspan></text></g></g><g class="edge-label" id="edge-label-edge-sequential/conv2d/Relu;sequential/conv2d/BiasAdd;sequential/conv2d_1/Conv2D;sequential/conv2d/Conv2D;sequential/conv2d/BiasAdd/ReadVariableOp/resource&#10;18" transform="translate(83.203125,212.5)" style="opacity: 1;"><g transform="translate(-28.203125,-5.5)"><text style="font-family: -apple-system, BlinkMacSystemFont, &quot;Segoe WPC&quot;, &quot;Segoe UI&quot;, Ubuntu, &quot;Droid Sans&quot;, sans-serif, &quot;PingFang SC&quot;; font-size: 10px;"><tspan xml:space="preserve" dy="1em" x="1">1×32×32×32</tspan></text></g></g><g class="edge-label" id="edge-label-edge-sequential/conv2d_1/Relu;sequential/conv2d_1/BiasAdd;sequential/conv2d_1/Conv2D;sequential/conv2d_1/BiasAdd/ReadVariableOp/resource&#10;19" transform="translate(83.203125,323.5)" style="opacity: 1;"><g transform="translate(-28.203125,-5.5)"><text style="font-family: -apple-system, BlinkMacSystemFont, &quot;Segoe WPC&quot;, &quot;Segoe UI&quot;, Ubuntu, &quot;Droid Sans&quot;, sans-serif, &quot;PingFang SC&quot;; font-size: 10px;"><tspan xml:space="preserve" dy="1em" x="1">1×32×32×32</tspan></text></g></g><g class="edge-label" id="edge-label-edge-sequential/max_pooling2d/MaxPool&#10;20" transform="translate(83.203125,384.5)" style="opacity: 1;"><g transform="translate(-28.203125,-5.5)"><text style="font-family: -apple-system, BlinkMacSystemFont, &quot;Segoe WPC&quot;, &quot;Segoe UI&quot;, Ubuntu, &quot;Droid Sans&quot;, sans-serif, &quot;PingFang SC&quot;; font-size: 10px;"><tspan xml:space="preserve" dy="1em" x="1">1×16×16×32</tspan></text></g></g><g class="edge-label" id="edge-label-edge-sequential/conv2d_2/Relu;sequential/conv2d_2/BiasAdd;sequential/conv2d_3/Conv2D;sequential/conv2d_2/Conv2D;sequential/conv2d_2/BiasAdd/ReadVariableOp/resource&#10;21" transform="translate(83.3828125,495.5)" style="opacity: 1;"><g transform="translate(-28.3828125,-5.5)"><text style="font-family: -apple-system, BlinkMacSystemFont, &quot;Segoe WPC&quot;, &quot;Segoe UI&quot;, Ubuntu, &quot;Droid Sans&quot;, sans-serif, &quot;PingFang SC&quot;; font-size: 10px;"><tspan xml:space="preserve" dy="1em" x="1">1×16×16×64</tspan></text></g></g><g class="edge-label" id="edge-label-edge-sequential/conv2d_3/Relu;sequential/conv2d_3/BiasAdd;sequential/conv2d_3/Conv2D;sequential/conv2d_3/BiasAdd/ReadVariableOp/resource&#10;22" transform="translate(83.3828125,606.5)" style="opacity: 1;"><g transform="translate(-28.3828125,-5.5)"><text style="font-family: -apple-system, BlinkMacSystemFont, &quot;Segoe WPC&quot;, &quot;Segoe UI&quot;, Ubuntu, &quot;Droid Sans&quot;, sans-serif, &quot;PingFang SC&quot;; font-size: 10px;"><tspan xml:space="preserve" dy="1em" x="1">1×16×16×64</tspan></text></g></g><g class="edge-label" id="edge-label-edge-sequential/max_pooling2d_1/MaxPool&#10;23" transform="translate(77.7421875,667.5)" style="opacity: 1;"><g transform="translate(-22.7421875,-5.5)"><text style="font-family: -apple-system, BlinkMacSystemFont, &quot;Segoe WPC&quot;, &quot;Segoe UI&quot;, Ubuntu, &quot;Droid Sans&quot;, sans-serif, &quot;PingFang SC&quot;; font-size: 10px;"><tspan xml:space="preserve" dy="1em" x="1">1×8×8×64</tspan></text></g></g><g class="edge-label" id="edge-label-edge-sequential/conv2d_4/Relu;sequential/conv2d_4/BiasAdd;sequential/conv2d_5/Conv2D;sequential/conv2d_4/Conv2D;sequential/conv2d_4/BiasAdd/ReadVariableOp/resource&#10;24" transform="translate(80.5625,778.5)" style="opacity: 1;"><g transform="translate(-25.5625,-5.5)"><text style="font-family: -apple-system, BlinkMacSystemFont, &quot;Segoe WPC&quot;, &quot;Segoe UI&quot;, Ubuntu, &quot;Droid Sans&quot;, sans-serif, &quot;PingFang SC&quot;; font-size: 10px;"><tspan xml:space="preserve" dy="1em" x="1">1×8×8×128</tspan></text></g></g><g class="edge-label" id="edge-label-edge-sequential/conv2d_5/Relu;sequential/conv2d_5/BiasAdd;sequential/conv2d_5/Conv2D;sequential/conv2d_5/BiasAdd/ReadVariableOp/resource&#10;25" transform="translate(80.5625,889.5)" style="opacity: 1;"><g transform="translate(-25.5625,-5.5)"><text style="font-family: -apple-system, BlinkMacSystemFont, &quot;Segoe WPC&quot;, &quot;Segoe UI&quot;, Ubuntu, &quot;Droid Sans&quot;, sans-serif, &quot;PingFang SC&quot;; font-size: 10px;"><tspan xml:space="preserve" dy="1em" x="1">1×8×8×128</tspan></text></g></g><g class="edge-label" id="edge-label-edge-sequential/max_pooling2d_2/MaxPool&#10;26" transform="translate(80.5625,950.5)" style="opacity: 1;"><g transform="translate(-25.5625,-5.5)"><text style="font-family: -apple-system, BlinkMacSystemFont, &quot;Segoe WPC&quot;, &quot;Segoe UI&quot;, Ubuntu, &quot;Droid Sans&quot;, sans-serif, &quot;PingFang SC&quot;; font-size: 10px;"><tspan xml:space="preserve" dy="1em" x="1">1×4×4×128</tspan></text></g></g><g class="edge-label" id="edge-label-edge-sequential/flatten/Reshape&#10;27" transform="translate(72.1015625,1029.5)" style="opacity: 1;"><g transform="translate(-17.1015625,-5.5)"><text style="font-family: -apple-system, BlinkMacSystemFont, &quot;Segoe WPC&quot;, &quot;Segoe UI&quot;, Ubuntu, &quot;Droid Sans&quot;, sans-serif, &quot;PingFang SC&quot;; font-size: 10px;"><tspan xml:space="preserve" dy="1em" x="1">1×2048</tspan></text></g></g><g class="edge-label" id="edge-label-edge-sequential/dense/Relu;sequential/dense/BiasAdd&#10;28" transform="translate(69.28125,1140.5)" style="opacity: 1;"><g transform="translate(-14.28125,-5.5)"><text style="font-family: -apple-system, BlinkMacSystemFont, &quot;Segoe WPC&quot;, &quot;Segoe UI&quot;, Ubuntu, &quot;Droid Sans&quot;, sans-serif, &quot;PingFang SC&quot;; font-size: 10px;"><tspan xml:space="preserve" dy="1em" x="1">1×128</tspan></text></g></g><g class="edge-label" id="edge-label-edge-sequential/dense_1/BiasAdd&#10;29" transform="translate(66.4609375,1231.5)" style="opacity: 1;"><g transform="translate(-11.4609375,-5.5)"><text style="font-family: -apple-system, BlinkMacSystemFont, &quot;Segoe WPC&quot;, &quot;Segoe UI&quot;, Ubuntu, &quot;Droid Sans&quot;, sans-serif, &quot;PingFang SC&quot;; font-size: 10px;"><tspan xml:space="preserve" dy="1em" x="1">1×10</tspan></text></g></g><g class="edge-label" id="edge-label-edge-Identity_int8&#10;30" transform="translate(66.4609375,1292.5)" style="opacity: 1;"><g transform="translate(-11.4609375,-5.5)"><text style="font-family: -apple-system, BlinkMacSystemFont, &quot;Segoe WPC&quot;, &quot;Segoe UI&quot;, Ubuntu, &quot;Droid Sans&quot;, sans-serif, &quot;PingFang SC&quot;; font-size: 10px;"><tspan xml:space="preserve" dy="1em" x="1">1×10</tspan></text></g></g><g class="edge-label" id="edge-label-edge-Identity&#10;32" transform="translate(66.4609375,1353.5)" style="opacity: 1;"><g transform="translate(-11.4609375,-5.5)"><text style="font-family: -apple-system, BlinkMacSystemFont, &quot;Segoe WPC&quot;, &quot;Segoe UI&quot;, Ubuntu, &quot;Droid Sans&quot;, sans-serif, &quot;PingFang SC&quot;; font-size: 10px;"><tspan xml:space="preserve" dy="1em" x="1">1×10</tspan></text></g></g></g><g id="nodes" class="nodes"><g id="node-id-0" class="node graph-node" transform="translate(50,71)" style="opacity: 1;"><g transform="translate(-29.6328125,-10)"><g class="node-item node-item-type" transform="translate(0,0)"><path d="M5,0h49.265625a5,5 0 0 1 5,5v10a5,5 0 0 1 -5,5h-49.265625a5,5 0 0 1 -5,-5v-10a5,5 0 0 1 5,-5z" style="stroke: rgb(0, 0, 0); fill: rgb(0, 0, 0); stroke-width: 0;"/><text x="6" y="14" style="font-family: -apple-system, BlinkMacSystemFont, &quot;Segoe WPC&quot;, &quot;Segoe UI&quot;, Ubuntu, &quot;Droid Sans&quot;, sans-serif, &quot;PingFang SC&quot;; font-size: 11px; text-rendering: geometricprecision; fill: rgb(255, 255, 255);">Quantize</text><title>0</title></g><path class="node border" d="M5,0h49.265625a5,5 0 0 1 5,5v10a5,5 0 0 1 -5,5h-49.265625a5,5 0 0 1 -5,-5v-10a5,5 0 0 1 5,-5z" style="stroke: rgb(51, 51, 51); fill: none; stroke-width: 1px;"/></g></g><g id="node-id-1" class="node graph-node" transform="translate(50,157)" style="opacity: 1;"><g transform="translate(-50,-35)"><g class="node-item node-item-type node-item-type-layer" transform="translate(0,0)"><path d="M5,0h90a5,5 0 0 1 5,5v15a0,0 0 0 1 0,0h-100a0,0 0 0 1 0,0v-15a5,5 0 0 1 5,-5z" style="stroke: rgb(0, 0, 0); fill: rgb(51, 85, 136); stroke-width: 0;"/><text x="6" y="14" style="font-family: -apple-system, BlinkMacSystemFont, &quot;Segoe WPC&quot;, &quot;Segoe UI&quot;, Ubuntu, &quot;Droid Sans&quot;, sans-serif, &quot;PingFang SC&quot;; font-size: 11px; text-rendering: geometricprecision; fill: rgb(255, 255, 255);">Conv2D</text><title>1</title></g><g class="node-attribute" transform="translate(0,20)"><path d="M0,0h100a0,0 0 0 1 0,0v30a0,0 0 0 1 0,0h-100a0,0 0 0 1 0,0v-30a0,0 0 0 1 0,0z" style="stroke: rgb(0, 0, 0); fill: rgb(255, 255, 255); stroke-width: 0;"/><text id="initializer-sequential/conv2d/Conv2D&#10;12" xml:space="preserve" x="6" y="12" style="font-family: -apple-system, BlinkMacSystemFont, &quot;Segoe WPC&quot;, &quot;Segoe UI&quot;, Ubuntu, &quot;Droid Sans&quot;, sans-serif, &quot;PingFang SC&quot;; font-size: 9px; font-weight: normal; text-rendering: geometricprecision;"><title>int8[32,3,3,3]</title><tspan style="font-weight: bold;">filter</tspan><tspan>〈32×3×3×3〉</tspan></text><text id="initializer-sequential/conv2d/BiasAdd/ReadVariableOp/resource&#10;1" xml:space="preserve" x="6" y="24" style="font-family: -apple-system, BlinkMacSystemFont, &quot;Segoe WPC&quot;, &quot;Segoe UI&quot;, Ubuntu, &quot;Droid Sans&quot;, sans-serif, &quot;PingFang SC&quot;; font-size: 9px; font-weight: normal; text-rendering: geometricprecision;"><title>int32[32]</title><tspan style="font-weight: bold;">bias</tspan><tspan>〈32〉</tspan></text><line class="node" x1="0" x2="100" y1="0" y2="0" style="stroke: rgb(51, 51, 51); fill: none; stroke-width: 1px;"/></g><g class="node-item node-item-type node-item-type-activation" transform="translate(0,50)"><path d="M0,0h100a0,0 0 0 1 0,0v15a5,5 0 0 1 -5,5h-90a5,5 0 0 1 -5,-5v-15a0,0 0 0 1 0,0z" style="stroke: rgb(0, 0, 0); fill: rgb(75, 27, 22); stroke-width: 0;"/><text x="6" y="14" style="font-family: -apple-system, BlinkMacSystemFont, &quot;Segoe WPC&quot;, &quot;Segoe UI&quot;, Ubuntu, &quot;Droid Sans&quot;, sans-serif, &quot;PingFang SC&quot;; font-size: 11px; text-rendering: geometricprecision; fill: rgb(255, 255, 255);">Relu</text></g><line class="node" x1="0" x2="100" y1="50" y2="50" style="stroke: rgb(51, 51, 51); fill: none; stroke-width: 1px;"/><path class="node border" d="M5,0h90a5,5 0 0 1 5,5v60a5,5 0 0 1 -5,5h-90a5,5 0 0 1 -5,-5v-60a5,5 0 0 1 5,-5z" style="stroke: rgb(51, 51, 51); fill: none; stroke-width: 1px;"/></g></g><g id="node-id-2" class="node graph-node" transform="translate(50,268)" style="opacity: 1;"><g transform="translate(-50,-35)"><g class="node-item node-item-type node-item-type-layer" transform="translate(0,0)"><path d="M5,0h90a5,5 0 0 1 5,5v15a0,0 0 0 1 0,0h-100a0,0 0 0 1 0,0v-15a5,5 0 0 1 5,-5z" style="stroke: rgb(0, 0, 0); fill: rgb(51, 85, 136); stroke-width: 0;"/><text x="6" y="14" style="font-family: -apple-system, BlinkMacSystemFont, &quot;Segoe WPC&quot;, &quot;Segoe UI&quot;, Ubuntu, &quot;Droid Sans&quot;, sans-serif, &quot;PingFang SC&quot;; font-size: 11px; text-rendering: geometricprecision; fill: rgb(255, 255, 255);">Conv2D</text><title>2</title></g><g class="node-attribute" transform="translate(0,20)"><path d="M0,0h100a0,0 0 0 1 0,0v30a0,0 0 0 1 0,0h-100a0,0 0 0 1 0,0v-30a0,0 0 0 1 0,0z" style="stroke: rgb(0, 0, 0); fill: rgb(255, 255, 255); stroke-width: 0;"/><text id="initializer-sequential/conv2d_1/Conv2D&#10;13" xml:space="preserve" x="6" y="12" style="font-family: -apple-system, BlinkMacSystemFont, &quot;Segoe WPC&quot;, &quot;Segoe UI&quot;, Ubuntu, &quot;Droid Sans&quot;, sans-serif, &quot;PingFang SC&quot;; font-size: 9px; font-weight: normal; text-rendering: geometricprecision;"><title>int8[32,3,3,32]</title><tspan style="font-weight: bold;">filter</tspan><tspan>〈32×3×3×32〉</tspan></text><text id="initializer-sequential/conv2d_1/BiasAdd/ReadVariableOp/resource&#10;2" xml:space="preserve" x="6" y="24" style="font-family: -apple-system, BlinkMacSystemFont, &quot;Segoe WPC&quot;, &quot;Segoe UI&quot;, Ubuntu, &quot;Droid Sans&quot;, sans-serif, &quot;PingFang SC&quot;; font-size: 9px; font-weight: normal; text-rendering: geometricprecision;"><title>int32[32]</title><tspan style="font-weight: bold;">bias</tspan><tspan>〈32〉</tspan></text><line class="node" x1="0" x2="100" y1="0" y2="0" style="stroke: rgb(51, 51, 51); fill: none; stroke-width: 1px;"/></g><g class="node-item node-item-type node-item-type-activation" transform="translate(0,50)"><path d="M0,0h100a0,0 0 0 1 0,0v15a5,5 0 0 1 -5,5h-90a5,5 0 0 1 -5,-5v-15a0,0 0 0 1 0,0z" style="stroke: rgb(0, 0, 0); fill: rgb(75, 27, 22); stroke-width: 0;"/><text x="6" y="14" style="font-family: -apple-system, BlinkMacSystemFont, &quot;Segoe WPC&quot;, &quot;Segoe UI&quot;, Ubuntu, &quot;Droid Sans&quot;, sans-serif, &quot;PingFang SC&quot;; font-size: 11px; text-rendering: geometricprecision; fill: rgb(255, 255, 255);">Relu</text></g><line class="node" x1="0" x2="100" y1="50" y2="50" style="stroke: rgb(51, 51, 51); fill: none; stroke-width: 1px;"/><path class="node border" d="M5,0h90a5,5 0 0 1 5,5v60a5,5 0 0 1 -5,5h-90a5,5 0 0 1 -5,-5v-60a5,5 0 0 1 5,-5z" style="stroke: rgb(51, 51, 51); fill: none; stroke-width: 1px;"/></g></g><g id="node-id-3" class="node graph-node" transform="translate(50,354)" style="opacity: 1;"><g transform="translate(-35.796875,-10)"><g class="node-item node-item-type node-item-type-pool" transform="translate(0,0)"><path d="M5,0h61.59375a5,5 0 0 1 5,5v10a5,5 0 0 1 -5,5h-61.59375a5,5 0 0 1 -5,-5v-10a5,5 0 0 1 5,-5z" style="stroke: rgb(0, 0, 0); fill: rgb(51, 85, 51); stroke-width: 0;"/><text x="6" y="14" style="font-family: -apple-system, BlinkMacSystemFont, &quot;Segoe WPC&quot;, &quot;Segoe UI&quot;, Ubuntu, &quot;Droid Sans&quot;, sans-serif, &quot;PingFang SC&quot;; font-size: 11px; text-rendering: geometricprecision; fill: rgb(255, 255, 255);">MaxPool2D</text><title>3</title></g><path class="node border" d="M5,0h61.59375a5,5 0 0 1 5,5v10a5,5 0 0 1 -5,5h-61.59375a5,5 0 0 1 -5,-5v-10a5,5 0 0 1 5,-5z" style="stroke: rgb(51, 51, 51); fill: none; stroke-width: 1px;"/></g></g><g id="node-id-4" class="node graph-node" transform="translate(50,440)" style="opacity: 1;"><g transform="translate(-50,-35)"><g class="node-item node-item-type node-item-type-layer" transform="translate(0,0)"><path d="M5,0h90a5,5 0 0 1 5,5v15a0,0 0 0 1 0,0h-100a0,0 0 0 1 0,0v-15a5,5 0 0 1 5,-5z" style="stroke: rgb(0, 0, 0); fill: rgb(51, 85, 136); stroke-width: 0;"/><text x="6" y="14" style="font-family: -apple-system, BlinkMacSystemFont, &quot;Segoe WPC&quot;, &quot;Segoe UI&quot;, Ubuntu, &quot;Droid Sans&quot;, sans-serif, &quot;PingFang SC&quot;; font-size: 11px; text-rendering: geometricprecision; fill: rgb(255, 255, 255);">Conv2D</text><title>4</title></g><g class="node-attribute" transform="translate(0,20)"><path d="M0,0h100a0,0 0 0 1 0,0v30a0,0 0 0 1 0,0h-100a0,0 0 0 1 0,0v-30a0,0 0 0 1 0,0z" style="stroke: rgb(0, 0, 0); fill: rgb(255, 255, 255); stroke-width: 0;"/><text id="initializer-sequential/conv2d_2/Conv2D&#10;14" xml:space="preserve" x="6" y="12" style="font-family: -apple-system, BlinkMacSystemFont, &quot;Segoe WPC&quot;, &quot;Segoe UI&quot;, Ubuntu, &quot;Droid Sans&quot;, sans-serif, &quot;PingFang SC&quot;; font-size: 9px; font-weight: normal; text-rendering: geometricprecision;"><title>int8[64,3,3,32]</title><tspan style="font-weight: bold;">filter</tspan><tspan>〈64×3×3×32〉</tspan></text><text id="initializer-sequential/conv2d_2/BiasAdd/ReadVariableOp/resource&#10;3" xml:space="preserve" x="6" y="24" style="font-family: -apple-system, BlinkMacSystemFont, &quot;Segoe WPC&quot;, &quot;Segoe UI&quot;, Ubuntu, &quot;Droid Sans&quot;, sans-serif, &quot;PingFang SC&quot;; font-size: 9px; font-weight: normal; text-rendering: geometricprecision;"><title>int32[64]</title><tspan style="font-weight: bold;">bias</tspan><tspan>〈64〉</tspan></text><line class="node" x1="0" x2="100" y1="0" y2="0" style="stroke: rgb(51, 51, 51); fill: none; stroke-width: 1px;"/></g><g class="node-item node-item-type node-item-type-activation" transform="translate(0,50)"><path d="M0,0h100a0,0 0 0 1 0,0v15a5,5 0 0 1 -5,5h-90a5,5 0 0 1 -5,-5v-15a0,0 0 0 1 0,0z" style="stroke: rgb(0, 0, 0); fill: rgb(75, 27, 22); stroke-width: 0;"/><text x="6" y="14" style="font-family: -apple-system, BlinkMacSystemFont, &quot;Segoe WPC&quot;, &quot;Segoe UI&quot;, Ubuntu, &quot;Droid Sans&quot;, sans-serif, &quot;PingFang SC&quot;; font-size: 11px; text-rendering: geometricprecision; fill: rgb(255, 255, 255);">Relu</text></g><line class="node" x1="0" x2="100" y1="50" y2="50" style="stroke: rgb(51, 51, 51); fill: none; stroke-width: 1px;"/><path class="node border" d="M5,0h90a5,5 0 0 1 5,5v60a5,5 0 0 1 -5,5h-90a5,5 0 0 1 -5,-5v-60a5,5 0 0 1 5,-5z" style="stroke: rgb(51, 51, 51); fill: none; stroke-width: 1px;"/></g></g><g id="node-id-5" class="node graph-node" transform="translate(50,551)" style="opacity: 1;"><g transform="translate(-50,-35)"><g class="node-item node-item-type node-item-type-layer" transform="translate(0,0)"><path d="M5,0h90a5,5 0 0 1 5,5v15a0,0 0 0 1 0,0h-100a0,0 0 0 1 0,0v-15a5,5 0 0 1 5,-5z" style="stroke: rgb(0, 0, 0); fill: rgb(51, 85, 136); stroke-width: 0;"/><text x="6" y="14" style="font-family: -apple-system, BlinkMacSystemFont, &quot;Segoe WPC&quot;, &quot;Segoe UI&quot;, Ubuntu, &quot;Droid Sans&quot;, sans-serif, &quot;PingFang SC&quot;; font-size: 11px; text-rendering: geometricprecision; fill: rgb(255, 255, 255);">Conv2D</text><title>5</title></g><g class="node-attribute" transform="translate(0,20)"><path d="M0,0h100a0,0 0 0 1 0,0v30a0,0 0 0 1 0,0h-100a0,0 0 0 1 0,0v-30a0,0 0 0 1 0,0z" style="stroke: rgb(0, 0, 0); fill: rgb(255, 255, 255); stroke-width: 0;"/><text id="initializer-sequential/conv2d_3/Conv2D&#10;15" xml:space="preserve" x="6" y="12" style="font-family: -apple-system, BlinkMacSystemFont, &quot;Segoe WPC&quot;, &quot;Segoe UI&quot;, Ubuntu, &quot;Droid Sans&quot;, sans-serif, &quot;PingFang SC&quot;; font-size: 9px; font-weight: normal; text-rendering: geometricprecision;"><title>int8[64,3,3,64]</title><tspan style="font-weight: bold;">filter</tspan><tspan>〈64×3×3×64〉</tspan></text><text id="initializer-sequential/conv2d_3/BiasAdd/ReadVariableOp/resource&#10;4" xml:space="preserve" x="6" y="24" style="font-family: -apple-system, BlinkMacSystemFont, &quot;Segoe WPC&quot;, &quot;Segoe UI&quot;, Ubuntu, &quot;Droid Sans&quot;, sans-serif, &quot;PingFang SC&quot;; font-size: 9px; font-weight: normal; text-rendering: geometricprecision;"><title>int32[64]</title><tspan style="font-weight: bold;">bias</tspan><tspan>〈64〉</tspan></text><line class="node" x1="0" x2="100" y1="0" y2="0" style="stroke: rgb(51, 51, 51); fill: none; stroke-width: 1px;"/></g><g class="node-item node-item-type node-item-type-activation" transform="translate(0,50)"><path d="M0,0h100a0,0 0 0 1 0,0v15a5,5 0 0 1 -5,5h-90a5,5 0 0 1 -5,-5v-15a0,0 0 0 1 0,0z" style="stroke: rgb(0, 0, 0); fill: rgb(75, 27, 22); stroke-width: 0;"/><text x="6" y="14" style="font-family: -apple-system, BlinkMacSystemFont, &quot;Segoe WPC&quot;, &quot;Segoe UI&quot;, Ubuntu, &quot;Droid Sans&quot;, sans-serif, &quot;PingFang SC&quot;; font-size: 11px; text-rendering: geometricprecision; fill: rgb(255, 255, 255);">Relu</text></g><line class="node" x1="0" x2="100" y1="50" y2="50" style="stroke: rgb(51, 51, 51); fill: none; stroke-width: 1px;"/><path class="node border" d="M5,0h90a5,5 0 0 1 5,5v60a5,5 0 0 1 -5,5h-90a5,5 0 0 1 -5,-5v-60a5,5 0 0 1 5,-5z" style="stroke: rgb(51, 51, 51); fill: none; stroke-width: 1px;"/></g></g><g id="node-id-6" class="node graph-node" transform="translate(50,637)" style="opacity: 1;"><g transform="translate(-35.796875,-10)"><g class="node-item node-item-type node-item-type-pool" transform="translate(0,0)"><path d="M5,0h61.59375a5,5 0 0 1 5,5v10a5,5 0 0 1 -5,5h-61.59375a5,5 0 0 1 -5,-5v-10a5,5 0 0 1 5,-5z" style="stroke: rgb(0, 0, 0); fill: rgb(51, 85, 51); stroke-width: 0;"/><text x="6" y="14" style="font-family: -apple-system, BlinkMacSystemFont, &quot;Segoe WPC&quot;, &quot;Segoe UI&quot;, Ubuntu, &quot;Droid Sans&quot;, sans-serif, &quot;PingFang SC&quot;; font-size: 11px; text-rendering: geometricprecision; fill: rgb(255, 255, 255);">MaxPool2D</text><title>6</title></g><path class="node border" d="M5,0h61.59375a5,5 0 0 1 5,5v10a5,5 0 0 1 -5,5h-61.59375a5,5 0 0 1 -5,-5v-10a5,5 0 0 1 5,-5z" style="stroke: rgb(51, 51, 51); fill: none; stroke-width: 1px;"/></g></g><g id="node-id-7" class="node graph-node" transform="translate(50,723)" style="opacity: 1;"><g transform="translate(-50,-35)"><g class="node-item node-item-type node-item-type-layer" transform="translate(0,0)"><path d="M5,0h90a5,5 0 0 1 5,5v15a0,0 0 0 1 0,0h-100a0,0 0 0 1 0,0v-15a5,5 0 0 1 5,-5z" style="stroke: rgb(0, 0, 0); fill: rgb(51, 85, 136); stroke-width: 0;"/><text x="6" y="14" style="font-family: -apple-system, BlinkMacSystemFont, &quot;Segoe WPC&quot;, &quot;Segoe UI&quot;, Ubuntu, &quot;Droid Sans&quot;, sans-serif, &quot;PingFang SC&quot;; font-size: 11px; text-rendering: geometricprecision; fill: rgb(255, 255, 255);">Conv2D</text><title>7</title></g><g class="node-attribute" transform="translate(0,20)"><path d="M0,0h100a0,0 0 0 1 0,0v30a0,0 0 0 1 0,0h-100a0,0 0 0 1 0,0v-30a0,0 0 0 1 0,0z" style="stroke: rgb(0, 0, 0); fill: rgb(255, 255, 255); stroke-width: 0;"/><text id="initializer-sequential/conv2d_4/Conv2D&#10;16" xml:space="preserve" x="6" y="12" style="font-family: -apple-system, BlinkMacSystemFont, &quot;Segoe WPC&quot;, &quot;Segoe UI&quot;, Ubuntu, &quot;Droid Sans&quot;, sans-serif, &quot;PingFang SC&quot;; font-size: 9px; font-weight: normal; text-rendering: geometricprecision;"><title>int8[128,3,3,64]</title><tspan style="font-weight: bold;">filter</tspan><tspan>〈128×3×3×64〉</tspan></text><text id="initializer-sequential/conv2d_4/BiasAdd/ReadVariableOp/resource&#10;5" xml:space="preserve" x="6" y="24" style="font-family: -apple-system, BlinkMacSystemFont, &quot;Segoe WPC&quot;, &quot;Segoe UI&quot;, Ubuntu, &quot;Droid Sans&quot;, sans-serif, &quot;PingFang SC&quot;; font-size: 9px; font-weight: normal; text-rendering: geometricprecision;"><title>int32[128]</title><tspan style="font-weight: bold;">bias</tspan><tspan>〈128〉</tspan></text><line class="node" x1="0" x2="100" y1="0" y2="0" style="stroke: rgb(51, 51, 51); fill: none; stroke-width: 1px;"/></g><g class="node-item node-item-type node-item-type-activation" transform="translate(0,50)"><path d="M0,0h100a0,0 0 0 1 0,0v15a5,5 0 0 1 -5,5h-90a5,5 0 0 1 -5,-5v-15a0,0 0 0 1 0,0z" style="stroke: rgb(0, 0, 0); fill: rgb(75, 27, 22); stroke-width: 0;"/><text x="6" y="14" style="font-family: -apple-system, BlinkMacSystemFont, &quot;Segoe WPC&quot;, &quot;Segoe UI&quot;, Ubuntu, &quot;Droid Sans&quot;, sans-serif, &quot;PingFang SC&quot;; font-size: 11px; text-rendering: geometricprecision; fill: rgb(255, 255, 255);">Relu</text></g><line class="node" x1="0" x2="100" y1="50" y2="50" style="stroke: rgb(51, 51, 51); fill: none; stroke-width: 1px;"/><path class="node border" d="M5,0h90a5,5 0 0 1 5,5v60a5,5 0 0 1 -5,5h-90a5,5 0 0 1 -5,-5v-60a5,5 0 0 1 5,-5z" style="stroke: rgb(51, 51, 51); fill: none; stroke-width: 1px;"/></g></g><g id="node-id-8" class="node graph-node" transform="translate(50,834)" style="opacity: 1;"><g transform="translate(-50,-35)"><g class="node-item node-item-type node-item-type-layer" transform="translate(0,0)"><path d="M5,0h90a5,5 0 0 1 5,5v15a0,0 0 0 1 0,0h-100a0,0 0 0 1 0,0v-15a5,5 0 0 1 5,-5z" style="stroke: rgb(0, 0, 0); fill: rgb(51, 85, 136); stroke-width: 0;"/><text x="6" y="14" style="font-family: -apple-system, BlinkMacSystemFont, &quot;Segoe WPC&quot;, &quot;Segoe UI&quot;, Ubuntu, &quot;Droid Sans&quot;, sans-serif, &quot;PingFang SC&quot;; font-size: 11px; text-rendering: geometricprecision; fill: rgb(255, 255, 255);">Conv2D</text><title>8</title></g><g class="node-attribute" transform="translate(0,20)"><path d="M0,0h100a0,0 0 0 1 0,0v30a0,0 0 0 1 0,0h-100a0,0 0 0 1 0,0v-30a0,0 0 0 1 0,0z" style="stroke: rgb(0, 0, 0); fill: rgb(255, 255, 255); stroke-width: 0;"/><text id="initializer-sequential/conv2d_5/Conv2D&#10;17" xml:space="preserve" x="6" y="12" style="font-family: -apple-system, BlinkMacSystemFont, &quot;Segoe WPC&quot;, &quot;Segoe UI&quot;, Ubuntu, &quot;Droid Sans&quot;, sans-serif, &quot;PingFang SC&quot;; font-size: 9px; font-weight: normal; text-rendering: geometricprecision;"><title>int8[128,3,3,128]</title><tspan style="font-weight: bold;">filter</tspan><tspan>〈128×3×3×128〉</tspan></text><text id="initializer-sequential/conv2d_5/BiasAdd/ReadVariableOp/resource&#10;6" xml:space="preserve" x="6" y="24" style="font-family: -apple-system, BlinkMacSystemFont, &quot;Segoe WPC&quot;, &quot;Segoe UI&quot;, Ubuntu, &quot;Droid Sans&quot;, sans-serif, &quot;PingFang SC&quot;; font-size: 9px; font-weight: normal; text-rendering: geometricprecision;"><title>int32[128]</title><tspan style="font-weight: bold;">bias</tspan><tspan>〈128〉</tspan></text><line class="node" x1="0" x2="100" y1="0" y2="0" style="stroke: rgb(51, 51, 51); fill: none; stroke-width: 1px;"/></g><g class="node-item node-item-type node-item-type-activation" transform="translate(0,50)"><path d="M0,0h100a0,0 0 0 1 0,0v15a5,5 0 0 1 -5,5h-90a5,5 0 0 1 -5,-5v-15a0,0 0 0 1 0,0z" style="stroke: rgb(0, 0, 0); fill: rgb(75, 27, 22); stroke-width: 0;"/><text x="6" y="14" style="font-family: -apple-system, BlinkMacSystemFont, &quot;Segoe WPC&quot;, &quot;Segoe UI&quot;, Ubuntu, &quot;Droid Sans&quot;, sans-serif, &quot;PingFang SC&quot;; font-size: 11px; text-rendering: geometricprecision; fill: rgb(255, 255, 255);">Relu</text></g><line class="node" x1="0" x2="100" y1="50" y2="50" style="stroke: rgb(51, 51, 51); fill: none; stroke-width: 1px;"/><path class="node border" d="M5,0h90a5,5 0 0 1 5,5v60a5,5 0 0 1 -5,5h-90a5,5 0 0 1 -5,-5v-60a5,5 0 0 1 5,-5z" style="stroke: rgb(51, 51, 51); fill: none; stroke-width: 1px;"/></g></g><g id="node-id-9" class="node graph-node" transform="translate(50,920)" style="opacity: 1;"><g transform="translate(-35.796875,-10)"><g class="node-item node-item-type node-item-type-pool" transform="translate(0,0)"><path d="M5,0h61.59375a5,5 0 0 1 5,5v10a5,5 0 0 1 -5,5h-61.59375a5,5 0 0 1 -5,-5v-10a5,5 0 0 1 5,-5z" style="stroke: rgb(0, 0, 0); fill: rgb(51, 85, 51); stroke-width: 0;"/><text x="6" y="14" style="font-family: -apple-system, BlinkMacSystemFont, &quot;Segoe WPC&quot;, &quot;Segoe UI&quot;, Ubuntu, &quot;Droid Sans&quot;, sans-serif, &quot;PingFang SC&quot;; font-size: 11px; text-rendering: geometricprecision; fill: rgb(255, 255, 255);">MaxPool2D</text><title>9</title></g><path class="node border" d="M5,0h61.59375a5,5 0 0 1 5,5v10a5,5 0 0 1 -5,5h-61.59375a5,5 0 0 1 -5,-5v-10a5,5 0 0 1 5,-5z" style="stroke: rgb(51, 51, 51); fill: none; stroke-width: 1px;"/></g></g><g id="node-id-10" class="node graph-node" transform="translate(50,990)" style="opacity: 1;"><g transform="translate(-50,-19)"><g class="node-item node-item-type node-item-type-shape" transform="translate(0,0)"><path d="M5,0h90a5,5 0 0 1 5,5v15a0,0 0 0 1 0,0h-100a0,0 0 0 1 0,0v-15a5,5 0 0 1 5,-5z" style="stroke: rgb(0, 0, 0); fill: rgb(108, 79, 71); stroke-width: 0;"/><text x="6" y="14" style="font-family: -apple-system, BlinkMacSystemFont, &quot;Segoe WPC&quot;, &quot;Segoe UI&quot;, Ubuntu, &quot;Droid Sans&quot;, sans-serif, &quot;PingFang SC&quot;; font-size: 11px; text-rendering: geometricprecision; fill: rgb(255, 255, 255);">Reshape</text><title>10</title></g><g class="node-attribute" transform="translate(0,20)"><path d="M0,0h100a0,0 0 0 1 0,0v13a5,5 0 0 1 -5,5h-90a5,5 0 0 1 -5,-5v-13a0,0 0 0 1 0,0z" style="stroke: rgb(0, 0, 0); fill: rgb(255, 255, 255); stroke-width: 0;"/><text id="initializer-sequential/flatten/Const&#10;9" xml:space="preserve" x="6" y="12" style="font-family: -apple-system, BlinkMacSystemFont, &quot;Segoe WPC&quot;, &quot;Segoe UI&quot;, Ubuntu, &quot;Droid Sans&quot;, sans-serif, &quot;PingFang SC&quot;; font-size: 9px; font-weight: normal; text-rendering: geometricprecision;"><title>int32[2]</title><tspan style="font-weight: bold;">shape</tspan><tspan>〈2〉</tspan></text><line class="node" x1="0" x2="100" y1="0" y2="0" style="stroke: rgb(51, 51, 51); fill: none; stroke-width: 1px;"/></g><path class="node border" d="M5,0h90a5,5 0 0 1 5,5v28a5,5 0 0 1 -5,5h-90a5,5 0 0 1 -5,-5v-28a5,5 0 0 1 5,-5z" style="stroke: rgb(51, 51, 51); fill: none; stroke-width: 1px;"/></g></g><g id="node-id-11" class="node graph-node" transform="translate(50,1085)" style="opacity: 1;"><g transform="translate(-50,-35)"><g class="node-item node-item-type node-item-type-layer" transform="translate(0,0)"><path d="M5,0h90a5,5 0 0 1 5,5v15a0,0 0 0 1 0,0h-100a0,0 0 0 1 0,0v-15a5,5 0 0 1 5,-5z" style="stroke: rgb(0, 0, 0); fill: rgb(51, 85, 136); stroke-width: 0;"/><text x="6" y="14" style="font-family: -apple-system, BlinkMacSystemFont, &quot;Segoe WPC&quot;, &quot;Segoe UI&quot;, Ubuntu, &quot;Droid Sans&quot;, sans-serif, &quot;PingFang SC&quot;; font-size: 11px; text-rendering: geometricprecision; fill: rgb(255, 255, 255);">FullyConnected</text><title>11</title></g><g class="node-attribute" transform="translate(0,20)"><path d="M0,0h100a0,0 0 0 1 0,0v30a0,0 0 0 1 0,0h-100a0,0 0 0 1 0,0v-30a0,0 0 0 1 0,0z" style="stroke: rgb(0, 0, 0); fill: rgb(255, 255, 255); stroke-width: 0;"/><text id="initializer-sequential/dense/MatMul&#10;10" xml:space="preserve" x="6" y="12" style="font-family: -apple-system, BlinkMacSystemFont, &quot;Segoe WPC&quot;, &quot;Segoe UI&quot;, Ubuntu, &quot;Droid Sans&quot;, sans-serif, &quot;PingFang SC&quot;; font-size: 9px; font-weight: normal; text-rendering: geometricprecision;"><title>int8[128,2048]</title><tspan style="font-weight: bold;">weights</tspan><tspan>〈128×2048〉</tspan></text><text id="initializer-sequential/dense/BiasAdd/ReadVariableOp/resource&#10;7" xml:space="preserve" x="6" y="24" style="font-family: -apple-system, BlinkMacSystemFont, &quot;Segoe WPC&quot;, &quot;Segoe UI&quot;, Ubuntu, &quot;Droid Sans&quot;, sans-serif, &quot;PingFang SC&quot;; font-size: 9px; font-weight: normal; text-rendering: geometricprecision;"><title>int32[128]</title><tspan style="font-weight: bold;">bias</tspan><tspan>〈128〉</tspan></text><line class="node" x1="0" x2="100" y1="0" y2="0" style="stroke: rgb(51, 51, 51); fill: none; stroke-width: 1px;"/></g><g class="node-item node-item-type node-item-type-activation" transform="translate(0,50)"><path d="M0,0h100a0,0 0 0 1 0,0v15a5,5 0 0 1 -5,5h-90a5,5 0 0 1 -5,-5v-15a0,0 0 0 1 0,0z" style="stroke: rgb(0, 0, 0); fill: rgb(75, 27, 22); stroke-width: 0;"/><text x="6" y="14" style="font-family: -apple-system, BlinkMacSystemFont, &quot;Segoe WPC&quot;, &quot;Segoe UI&quot;, Ubuntu, &quot;Droid Sans&quot;, sans-serif, &quot;PingFang SC&quot;; font-size: 11px; text-rendering: geometricprecision; fill: rgb(255, 255, 255);">Relu</text></g><line class="node" x1="0" x2="100" y1="50" y2="50" style="stroke: rgb(51, 51, 51); fill: none; stroke-width: 1px;"/><path class="node border" d="M5,0h90a5,5 0 0 1 5,5v60a5,5 0 0 1 -5,5h-90a5,5 0 0 1 -5,-5v-60a5,5 0 0 1 5,-5z" style="stroke: rgb(51, 51, 51); fill: none; stroke-width: 1px;"/></g></g><g id="node-id-12" class="node graph-node" transform="translate(50,1186)" style="opacity: 1;"><g transform="translate(-50,-25)"><g class="node-item node-item-type node-item-type-layer" transform="translate(0,0)"><path d="M5,0h90a5,5 0 0 1 5,5v15a0,0 0 0 1 0,0h-100a0,0 0 0 1 0,0v-15a5,5 0 0 1 5,-5z" style="stroke: rgb(0, 0, 0); fill: rgb(51, 85, 136); stroke-width: 0;"/><text x="6" y="14" style="font-family: -apple-system, BlinkMacSystemFont, &quot;Segoe WPC&quot;, &quot;Segoe UI&quot;, Ubuntu, &quot;Droid Sans&quot;, sans-serif, &quot;PingFang SC&quot;; font-size: 11px; text-rendering: geometricprecision; fill: rgb(255, 255, 255);">FullyConnected</text><title>12</title></g><g class="node-attribute" transform="translate(0,20)"><path d="M0,0h100a0,0 0 0 1 0,0v25a5,5 0 0 1 -5,5h-90a5,5 0 0 1 -5,-5v-25a0,0 0 0 1 0,0z" style="stroke: rgb(0, 0, 0); fill: rgb(255, 255, 255); stroke-width: 0;"/><text id="initializer-sequential/dense_1/MatMul&#10;11" xml:space="preserve" x="6" y="12" style="font-family: -apple-system, BlinkMacSystemFont, &quot;Segoe WPC&quot;, &quot;Segoe UI&quot;, Ubuntu, &quot;Droid Sans&quot;, sans-serif, &quot;PingFang SC&quot;; font-size: 9px; font-weight: normal; text-rendering: geometricprecision;"><title>int8[10,128]</title><tspan style="font-weight: bold;">weights</tspan><tspan>〈10×128〉</tspan></text><text id="initializer-sequential/dense_1/BiasAdd/ReadVariableOp/resource&#10;8" xml:space="preserve" x="6" y="24" style="font-family: -apple-system, BlinkMacSystemFont, &quot;Segoe WPC&quot;, &quot;Segoe UI&quot;, Ubuntu, &quot;Droid Sans&quot;, sans-serif, &quot;PingFang SC&quot;; font-size: 9px; font-weight: normal; text-rendering: geometricprecision;"><title>int32[10]</title><tspan style="font-weight: bold;">bias</tspan><tspan>〈10〉</tspan></text><line class="node" x1="0" x2="100" y1="0" y2="0" style="stroke: rgb(51, 51, 51); fill: none; stroke-width: 1px;"/></g><path class="node border" d="M5,0h90a5,5 0 0 1 5,5v40a5,5 0 0 1 -5,5h-90a5,5 0 0 1 -5,-5v-40a5,5 0 0 1 5,-5z" style="stroke: rgb(51, 51, 51); fill: none; stroke-width: 1px;"/></g></g><g id="node-id-13" class="node graph-node" transform="translate(50,1262)" style="opacity: 1;"><g transform="translate(-28.1171875,-10)"><g class="node-item node-item-type node-item-type-activation" transform="translate(0,0)"><path d="M5,0h46.234375a5,5 0 0 1 5,5v10a5,5 0 0 1 -5,5h-46.234375a5,5 0 0 1 -5,-5v-10a5,5 0 0 1 5,-5z" style="stroke: rgb(0, 0, 0); fill: rgb(75, 27, 22); stroke-width: 0;"/><text x="6" y="14" style="font-family: -apple-system, BlinkMacSystemFont, &quot;Segoe WPC&quot;, &quot;Segoe UI&quot;, Ubuntu, &quot;Droid Sans&quot;, sans-serif, &quot;PingFang SC&quot;; font-size: 11px; text-rendering: geometricprecision; fill: rgb(255, 255, 255);">Softmax</text><title>13</title></g><path class="node border" d="M5,0h46.234375a5,5 0 0 1 5,5v10a5,5 0 0 1 -5,5h-46.234375a5,5 0 0 1 -5,-5v-10a5,5 0 0 1 5,-5z" style="stroke: rgb(51, 51, 51); fill: none; stroke-width: 1px;"/></g></g><g id="node-id-14" class="node graph-node" transform="translate(50,1323)" style="opacity: 1;"><g transform="translate(-35.5859375,-10)"><g class="node-item node-item-type" transform="translate(0,0)"><path d="M5,0h61.171875a5,5 0 0 1 5,5v10a5,5 0 0 1 -5,5h-61.171875a5,5 0 0 1 -5,-5v-10a5,5 0 0 1 5,-5z" style="stroke: rgb(0, 0, 0); fill: rgb(0, 0, 0); stroke-width: 0;"/><text x="6" y="14" style="font-family: -apple-system, BlinkMacSystemFont, &quot;Segoe WPC&quot;, &quot;Segoe UI&quot;, Ubuntu, &quot;Droid Sans&quot;, sans-serif, &quot;PingFang SC&quot;; font-size: 11px; text-rendering: geometricprecision; fill: rgb(255, 255, 255);">Dequantize</text><title>14</title></g><path class="node border" d="M5,0h61.171875a5,5 0 0 1 5,5v10a5,5 0 0 1 -5,5h-61.171875a5,5 0 0 1 -5,-5v-10a5,5 0 0 1 5,-5z" style="stroke: rgb(51, 51, 51); fill: none; stroke-width: 1px;"/></g></g><g id="input-name-conv2d_input&#10;31" class="node graph-input" transform="translate(50,10)" style="opacity: 1;"><g transform="translate(-48.2421875,-10)"><g class="node-item graph-item-input" transform="translate(0,0)"><path d="M5,0h86.484375a5,5 0 0 1 5,5v10a5,5 0 0 1 -5,5h-86.484375a5,5 0 0 1 -5,-5v-10a5,5 0 0 1 5,-5z" style="stroke: rgb(0, 0, 0); fill: rgb(238, 238, 238); stroke-width: 0;"/><text x="6" y="14" style="font-family: -apple-system, BlinkMacSystemFont, &quot;Segoe WPC&quot;, &quot;Segoe UI&quot;, Ubuntu, &quot;Droid Sans&quot;, sans-serif, &quot;PingFang SC&quot;; font-size: 11px; text-rendering: geometricprecision;">conv2d_input
31</text><title>float32[1,32,32,3]</title></g><path class="node border" d="M5,0h86.484375a5,5 0 0 1 5,5v10a5,5 0 0 1 -5,5h-86.484375a5,5 0 0 1 -5,-5v-10a5,5 0 0 1 5,-5z" style="stroke: rgb(51, 51, 51); fill: none; stroke-width: 1px;"/></g></g><g class="node" transform="translate(50,1384)" style="opacity: 1;"><g transform="translate(-33.9765625,-10)"><g class="node-item graph-item-output" transform="translate(0,0)"><path d="M5,0h57.953125a5,5 0 0 1 5,5v10a5,5 0 0 1 -5,5h-57.953125a5,5 0 0 1 -5,-5v-10a5,5 0 0 1 5,-5z" style="stroke: rgb(0, 0, 0); fill: rgb(238, 238, 238); stroke-width: 0;"/><text x="6" y="14" style="font-family: -apple-system, BlinkMacSystemFont, &quot;Segoe WPC&quot;, &quot;Segoe UI&quot;, Ubuntu, &quot;Droid Sans&quot;, sans-serif, &quot;PingFang SC&quot;; font-size: 11px; text-rendering: geometricprecision;">Identity
32</text><title>float32[1,10]</title></g><path class="node border" d="M5,0h57.953125a5,5 0 0 1 5,5v10a5,5 0 0 1 -5,5h-57.953125a5,5 0 0 1 -5,-5v-10a5,5 0 0 1 5,-5z" style="stroke: rgb(51, 51, 51); fill: none; stroke-width: 1px;"/></g></g></g></g></svg>