<svg xmlns="http://www.w3.org/2000/svg" id="export" class="canvas" preserveAspectRatio="xMidYMid meet" style="position: absolute; margin: 0px;" width="128" height="1466"><rect id="background" fill="#fff" pointer-events="all" width="128" height="1466"/><g id="origin" transform="translate(5.7992187500000005, 5.7992187500000005) scale(1)"><g id="clusters" class="clusters"/><g id="edge-paths" class="edge-paths"><defs><marker id="arrowhead-vee" viewBox="0 0 10 10" refX="9" refY="5" markerUnits="strokeWidth" markerWidth="8" markerHeight="6" orient="auto" style="fill: rgb(0, 0, 0);"><path d="M 0 0 L 10 5 L 0 10 L 4 5 z" style="stroke-width: 1;"/></marker><marker id="arrowhead-vee-select" viewBox="0 0 10 10" refX="9" refY="5" markerUnits="strokeWidth" markerWidth="8" markerHeight="6" orient="auto" style="fill: rgb(238, 0, 0);"><path d="M 0 0 L 10 5 L 0 10 L 4 5 z" style="stroke-width: 1;"/></marker></defs><path id="edge-conv2d_input&#10;0" class="edge-path" d="M53.21875,20L53.21875,23.416666666666668C53.21875,26.833333333333332,53.21875,33.666666666666664,53.21875,40.5C53.21875,47.333333333333336,53.21875,54.166666666666664,53.21875,57.583333333333336L53.21875,61" style="stroke: rgb(0, 0, 0); stroke-width: 1px; fill: none; marker-end: url(&quot;#arrowhead-vee&quot;);"/><path id="edge-sequential/conv2d/Relu;sequential/conv2d/BiasAdd;sequential/conv2d_1/Conv2D;sequential/conv2d/Conv2D;sequential/conv2d/BiasAdd/ReadVariableOp/resource&#10;22" class="edge-path" d="M53.21875,131L53.21875,134.41666666666666C53.21875,137.83333333333334,53.21875,144.66666666666666,53.21875,151.5C53.21875,158.33333333333334,53.21875,165.16666666666666,53.21875,168.58333333333334L53.21875,172" style="stroke: rgb(0, 0, 0); stroke-width: 1px; fill: none; marker-end: url(&quot;#arrowhead-vee&quot;);"/><path id="edge-sequential/conv2d_1/Relu;sequential/conv2d_1/BiasAdd;sequential/conv2d_1/Conv2D;sequential/conv2d_1/BiasAdd/ReadVariableOp/resource&#10;23" class="edge-path" d="M53.21875,242L53.21875,245.41666666666666C53.21875,248.83333333333334,53.21875,255.66666666666666,53.21875,262.5C53.21875,269.3333333333333,53.21875,276.1666666666667,53.21875,279.5833333333333L53.21875,283" style="stroke: rgb(0, 0, 0); stroke-width: 1px; fill: none; marker-end: url(&quot;#arrowhead-vee&quot;);"/><path id="edge-sequential/max_pooling2d/MaxPool&#10;24" class="edge-path" d="M53.21875,303L53.21875,306.4166666666667C53.21875,309.8333333333333,53.21875,316.6666666666667,53.21875,323.5C53.21875,330.3333333333333,53.21875,337.1666666666667,53.21875,340.5833333333333L53.21875,344" style="stroke: rgb(0, 0, 0); stroke-width: 1px; fill: none; marker-end: url(&quot;#arrowhead-vee&quot;);"/><path id="edge-sequential/conv2d_2/Relu;sequential/conv2d_2/BiasAdd;sequential/separable_conv2d/separable_conv2d/depthwise;sequential/conv2d_2/Conv2D;sequential/conv2d_2/BiasAdd/ReadVariableOp/resource&#10;25" class="edge-path" d="M53.21875,414L53.21875,417.4166666666667C53.21875,420.8333333333333,53.21875,427.6666666666667,53.21875,434.5C53.21875,441.3333333333333,53.21875,448.1666666666667,53.21875,451.5833333333333L53.21875,455" style="stroke: rgb(0, 0, 0); stroke-width: 1px; fill: none; marker-end: url(&quot;#arrowhead-vee&quot;);"/><path id="edge-sequential/conv2d_3/Relu;sequential/conv2d_3/BiasAdd;sequential/separable_conv2d/separable_conv2d/depthwise;sequential/conv2d_3/Conv2D;sequential/conv2d_3/BiasAdd/ReadVariableOp/resource&#10;26" class="edge-path" d="M53.21875,525L53.21875,528.4166666666666C53.21875,531.8333333333334,53.21875,538.6666666666666,53.21875,545.5C53.21875,552.3333333333334,53.21875,559.1666666666666,53.21875,562.5833333333334L53.21875,566" style="stroke: rgb(0, 0, 0); stroke-width: 1px; fill: none; marker-end: url(&quot;#arrowhead-vee&quot;);"/><path id="edge-sequential/max_pooling2d_1/MaxPool&#10;27" class="edge-path" d="M53.21875,586L53.21875,589.4166666666666C53.21875,592.8333333333334,53.21875,599.6666666666666,53.21875,606.5C53.21875,613.3333333333334,53.21875,620.1666666666666,53.21875,623.5833333333334L53.21875,627" style="stroke: rgb(0, 0, 0); stroke-width: 1px; fill: none; marker-end: url(&quot;#arrowhead-vee&quot;);"/><path id="edge-sequential/separable_conv2d/separable_conv2d/depthwise2&#10;28" class="edge-path" d="M53.21875,677L53.21875,680.4166666666666C53.21875,683.8333333333334,53.21875,690.6666666666666,53.21875,697.5C53.21875,704.3333333333334,53.21875,711.1666666666666,53.21875,714.5833333333334L53.21875,718" style="stroke: rgb(0, 0, 0); stroke-width: 1px; fill: none; marker-end: url(&quot;#arrowhead-vee&quot;);"/><path id="edge-sequential/separable_conv2d/Relu;sequential/separable_conv2d/BiasAdd;sequential/separable_conv2d_1/separable_conv2d;sequential/separable_conv2d/separable_conv2d;sequential/separable_conv2d/BiasAdd/ReadVariableOp/resource&#10;29" class="edge-path" d="M53.21875,788L53.21875,791.4166666666666C53.21875,794.8333333333334,53.21875,801.6666666666666,53.21875,808.5C53.21875,815.3333333333334,53.21875,822.1666666666666,53.21875,825.5833333333334L53.21875,829" style="stroke: rgb(0, 0, 0); stroke-width: 1px; fill: none; marker-end: url(&quot;#arrowhead-vee&quot;);"/><path id="edge-sequential/separable_conv2d_1/separable_conv2d/depthwise1&#10;30" class="edge-path" d="M53.21875,879L53.21875,882.4166666666666C53.21875,885.8333333333334,53.21875,892.6666666666666,53.21875,899.5C53.21875,906.3333333333334,53.21875,913.1666666666666,53.21875,916.5833333333334L53.21875,920" style="stroke: rgb(0, 0, 0); stroke-width: 1px; fill: none; marker-end: url(&quot;#arrowhead-vee&quot;);"/><path id="edge-sequential/separable_conv2d_1/Relu;sequential/separable_conv2d_1/BiasAdd;sequential/separable_conv2d_1/separable_conv2d;sequential/separable_conv2d_1/BiasAdd/ReadVariableOp/resource&#10;31" class="edge-path" d="M53.21875,990L53.21875,993.4166666666666C53.21875,996.8333333333334,53.21875,1003.6666666666666,53.21875,1010.5C53.21875,1017.3333333333334,53.21875,1024.1666666666667,53.21875,1027.5833333333333L53.21875,1031" style="stroke: rgb(0, 0, 0); stroke-width: 1px; fill: none; marker-end: url(&quot;#arrowhead-vee&quot;);"/><path id="edge-sequential/max_pooling2d_2/MaxPool&#10;32" class="edge-path" d="M53.21875,1051L53.21875,1054.4166666666667C53.21875,1057.8333333333333,53.21875,1064.6666666666667,53.21875,1071.5C53.21875,1078.3333333333333,53.21875,1085.1666666666667,53.21875,1088.5833333333333L53.21875,1092" style="stroke: rgb(0, 0, 0); stroke-width: 1px; fill: none; marker-end: url(&quot;#arrowhead-vee&quot;);"/><path id="edge-sequential/flatten/Reshape&#10;33" class="edge-path" d="M53.21875,1130L53.21875,1133.4166666666667C53.21875,1136.8333333333333,53.21875,1143.6666666666667,53.21875,1150.5C53.21875,1157.3333333333333,53.21875,1164.1666666666667,53.21875,1167.5833333333333L53.21875,1171" style="stroke: rgb(0, 0, 0); stroke-width: 1px; fill: none; marker-end: url(&quot;#arrowhead-vee&quot;);"/><path id="edge-sequential/dense/Relu;sequential/dense/BiasAdd&#10;34" class="edge-path" d="M53.21875,1241L53.21875,1244.4166666666667C53.21875,1247.8333333333333,53.21875,1254.6666666666667,53.21875,1261.5C53.21875,1268.3333333333333,53.21875,1275.1666666666667,53.21875,1278.5833333333333L53.21875,1282" style="stroke: rgb(0, 0, 0); stroke-width: 1px; fill: none; marker-end: url(&quot;#arrowhead-vee&quot;);"/><path id="edge-sequential/dense_1/BiasAdd&#10;35" class="edge-path" d="M53.21875,1332L53.21875,1335.4166666666667C53.21875,1338.8333333333333,53.21875,1345.6666666666667,53.21875,1352.5C53.21875,1359.3333333333333,53.21875,1366.1666666666667,53.21875,1369.5833333333333L53.21875,1373" style="stroke: rgb(0, 0, 0); stroke-width: 1px; fill: none; marker-end: url(&quot;#arrowhead-vee&quot;);"/><path id="edge-Identity&#10;36" class="edge-path" d="M53.21875,1393L53.21875,1396.4166666666667C53.21875,1399.8333333333333,53.21875,1406.6666666666667,53.21875,1413.5C53.21875,1420.3333333333333,53.21875,1427.1666666666667,53.21875,1430.5833333333333L53.21875,1434" style="stroke: rgb(0, 0, 0); stroke-width: 1px; fill: none; marker-end: url(&quot;#arrowhead-vee&quot;);"/></g><g id="edge-labels" class="edge-labels"><g class="edge-label" id="edge-label-edge-conv2d_input&#10;0" transform="translate(83.6015625,40.5)" style="opacity: 1;"><g transform="translate(-25.3828125,-5.5)"><text style="font-family: -apple-system, BlinkMacSystemFont, &quot;Segoe WPC&quot;, &quot;Segoe UI&quot;, Ubuntu, &quot;Droid Sans&quot;, sans-serif, &quot;PingFang SC&quot;; font-size: 10px;"><tspan xml:space="preserve" dy="1em" x="1">1×32×32×3</tspan></text></g></g><g class="edge-label" id="edge-label-edge-sequential/conv2d/Relu;sequential/conv2d/BiasAdd;sequential/conv2d_1/Conv2D;sequential/conv2d/Conv2D;sequential/conv2d/BiasAdd/ReadVariableOp/resource&#10;22" transform="translate(86.421875,151.5)" style="opacity: 1;"><g transform="translate(-28.203125,-5.5)"><text style="font-family: -apple-system, BlinkMacSystemFont, &quot;Segoe WPC&quot;, &quot;Segoe UI&quot;, Ubuntu, &quot;Droid Sans&quot;, sans-serif, &quot;PingFang SC&quot;; font-size: 10px;"><tspan xml:space="preserve" dy="1em" x="1">1×32×32×32</tspan></text></g></g><g class="edge-label" id="edge-label-edge-sequential/conv2d_1/Relu;sequential/conv2d_1/BiasAdd;sequential/conv2d_1/Conv2D;sequential/conv2d_1/BiasAdd/ReadVariableOp/resource&#10;23" transform="translate(86.421875,262.5)" style="opacity: 1;"><g transform="translate(-28.203125,-5.5)"><text style="font-family: -apple-system, BlinkMacSystemFont, &quot;Segoe WPC&quot;, &quot;Segoe UI&quot;, Ubuntu, &quot;Droid Sans&quot;, sans-serif, &quot;PingFang SC&quot;; font-size: 10px;"><tspan xml:space="preserve" dy="1em" x="1">1×32×32×32</tspan></text></g></g><g class="edge-label" id="edge-label-edge-sequential/max_pooling2d/MaxPool&#10;24" transform="translate(86.421875,323.5)" style="opacity: 1;"><g transform="translate(-28.203125,-5.5)"><text style="font-family: -apple-system, BlinkMacSystemFont, &quot;Segoe WPC&quot;, &quot;Segoe UI&quot;, Ubuntu, &quot;Droid Sans&quot;, sans-serif, &quot;PingFang SC&quot;; font-size: 10px;"><tspan xml:space="preserve" dy="1em" x="1">1×16×16×32</tspan></text></g></g><g class="edge-label" id="edge-label-edge-sequential/conv2d_2/Relu;sequential/conv2d_2/BiasAdd;sequential/separable_conv2d/separable_conv2d/depthwise;sequential/conv2d_2/Conv2D;sequential/conv2d_2/BiasAdd/ReadVariableOp/resource&#10;25" transform="translate(86.6015625,434.5)" style="opacity: 1;"><g transform="translate(-28.3828125,-5.5)"><text style="font-family: -apple-system, BlinkMacSystemFont, &quot;Segoe WPC&quot;, &quot;Segoe UI&quot;, Ubuntu, &quot;Droid Sans&quot;, sans-serif, &quot;PingFang SC&quot;; font-size: 10px;"><tspan xml:space="preserve" dy="1em" x="1">1×16×16×64</tspan></text></g></g><g class="edge-label" id="edge-label-edge-sequential/conv2d_3/Relu;sequential/conv2d_3/BiasAdd;sequential/separable_conv2d/separable_conv2d/depthwise;sequential/conv2d_3/Conv2D;sequential/conv2d_3/BiasAdd/ReadVariableOp/resource&#10;26" transform="translate(86.6015625,545.5)" style="opacity: 1;"><g transform="translate(-28.3828125,-5.5)"><text style="font-family: -apple-system, BlinkMacSystemFont, &quot;Segoe WPC&quot;, &quot;Segoe UI&quot;, Ubuntu, &quot;Droid Sans&quot;, sans-serif, &quot;PingFang SC&quot;; font-size: 10px;"><tspan xml:space="preserve" dy="1em" x="1">1×16×16×64</tspan></text></g></g><g class="edge-label" id="edge-label-edge-sequential/max_pooling2d_1/MaxPool&#10;27" transform="translate(80.9609375,606.5)" style="opacity: 1;"><g transform="translate(-22.7421875,-5.5)"><text style="font-family: -apple-system, BlinkMacSystemFont, &quot;Segoe WPC&quot;, &quot;Segoe UI&quot;, Ubuntu, &quot;Droid Sans&quot;, sans-serif, &quot;PingFang SC&quot;; font-size: 10px;"><tspan xml:space="preserve" dy="1em" x="1">1×8×8×64</tspan></text></g></g><g class="edge-label" id="edge-label-edge-sequential/separable_conv2d/separable_conv2d/depthwise2&#10;28" transform="translate(80.9609375,697.5)" style="opacity: 1;"><g transform="translate(-22.7421875,-5.5)"><text style="font-family: -apple-system, BlinkMacSystemFont, &quot;Segoe WPC&quot;, &quot;Segoe UI&quot;, Ubuntu, &quot;Droid Sans&quot;, sans-serif, &quot;PingFang SC&quot;; font-size: 10px;"><tspan xml:space="preserve" dy="1em" x="1">1×8×8×64</tspan></text></g></g><g class="edge-label" id="edge-label-edge-sequential/separable_conv2d/Relu;sequential/separable_conv2d/BiasAdd;sequential/separable_conv2d_1/separable_conv2d;sequential/separable_conv2d/separable_conv2d;sequential/separable_conv2d/BiasAdd/ReadVariableOp/resource&#10;29" transform="translate(83.78125,808.5)" style="opacity: 1;"><g transform="translate(-25.5625,-5.5)"><text style="font-family: -apple-system, BlinkMacSystemFont, &quot;Segoe WPC&quot;, &quot;Segoe UI&quot;, Ubuntu, &quot;Droid Sans&quot;, sans-serif, &quot;PingFang SC&quot;; font-size: 10px;"><tspan xml:space="preserve" dy="1em" x="1">1×8×8×128</tspan></text></g></g><g class="edge-label" id="edge-label-edge-sequential/separable_conv2d_1/separable_conv2d/depthwise1&#10;30" transform="translate(83.78125,899.5)" style="opacity: 1;"><g transform="translate(-25.5625,-5.5)"><text style="font-family: -apple-system, BlinkMacSystemFont, &quot;Segoe WPC&quot;, &quot;Segoe UI&quot;, Ubuntu, &quot;Droid Sans&quot;, sans-serif, &quot;PingFang SC&quot;; font-size: 10px;"><tspan xml:space="preserve" dy="1em" x="1">1×8×8×128</tspan></text></g></g><g class="edge-label" id="edge-label-edge-sequential/separable_conv2d_1/Relu;sequential/separable_conv2d_1/BiasAdd;sequential/separable_conv2d_1/separable_conv2d;sequential/separable_conv2d_1/BiasAdd/ReadVariableOp/resource&#10;31" transform="translate(83.78125,1010.5)" style="opacity: 1;"><g transform="translate(-25.5625,-5.5)"><text style="font-family: -apple-system, BlinkMacSystemFont, &quot;Segoe WPC&quot;, &quot;Segoe UI&quot;, Ubuntu, &quot;Droid Sans&quot;, sans-serif, &quot;PingFang SC&quot;; font-size: 10px;"><tspan xml:space="preserve" dy="1em" x="1">1×8×8×128</tspan></text></g></g><g class="edge-label" id="edge-label-edge-sequential/max_pooling2d_2/MaxPool&#10;32" transform="translate(83.78125,1071.5)" style="opacity: 1;"><g transform="translate(-25.5625,-5.5)"><text style="font-family: -apple-system, BlinkMacSystemFont, &quot;Segoe WPC&quot;, &quot;Segoe UI&quot;, Ubuntu, &quot;Droid Sans&quot;, sans-serif, &quot;PingFang SC&quot;; font-size: 10px;"><tspan xml:space="preserve" dy="1em" x="1">1×4×4×128</tspan></text></g></g><g class="edge-label" id="edge-label-edge-sequential/flatten/Reshape&#10;33" transform="translate(75.3203125,1150.5)" style="opacity: 1;"><g transform="translate(-17.1015625,-5.5)"><text style="font-family: -apple-system, BlinkMacSystemFont, &quot;Segoe WPC&quot;, &quot;Segoe UI&quot;, Ubuntu, &quot;Droid Sans&quot;, sans-serif, &quot;PingFang SC&quot;; font-size: 10px;"><tspan xml:space="preserve" dy="1em" x="1">1×2048</tspan></text></g></g><g class="edge-label" id="edge-label-edge-sequential/dense/Relu;sequential/dense/BiasAdd&#10;34" transform="translate(72.5,1261.5)" style="opacity: 1;"><g transform="translate(-14.28125,-5.5)"><text style="font-family: -apple-system, BlinkMacSystemFont, &quot;Segoe WPC&quot;, &quot;Segoe UI&quot;, Ubuntu, &quot;Droid Sans&quot;, sans-serif, &quot;PingFang SC&quot;; font-size: 10px;"><tspan xml:space="preserve" dy="1em" x="1">1×128</tspan></text></g></g><g class="edge-label" id="edge-label-edge-sequential/dense_1/BiasAdd&#10;35" transform="translate(69.6796875,1352.5)" style="opacity: 1;"><g transform="translate(-11.4609375,-5.5)"><text style="font-family: -apple-system, BlinkMacSystemFont, &quot;Segoe WPC&quot;, &quot;Segoe UI&quot;, Ubuntu, &quot;Droid Sans&quot;, sans-serif, &quot;PingFang SC&quot;; font-size: 10px;"><tspan xml:space="preserve" dy="1em" x="1">1×10</tspan></text></g></g><g class="edge-label" id="edge-label-edge-Identity&#10;36" transform="translate(69.6796875,1413.5)" style="opacity: 1;"><g transform="translate(-11.4609375,-5.5)"><text style="font-family: -apple-system, BlinkMacSystemFont, &quot;Segoe WPC&quot;, &quot;Segoe UI&quot;, Ubuntu, &quot;Droid Sans&quot;, sans-serif, &quot;PingFang SC&quot;; font-size: 10px;"><tspan xml:space="preserve" dy="1em" x="1">1×10</tspan></text></g></g></g><g id="nodes" class="nodes"><g id="node-id-0" class="node graph-node" transform="translate(53.21875,96)" style="opacity: 1;"><g transform="translate(-50,-35)"><g class="node-item node-item-type node-item-type-layer" transform="translate(0,0)"><path d="M5,0h90a5,5 0 0 1 5,5v15a0,0 0 0 1 0,0h-100a0,0 0 0 1 0,0v-15a5,5 0 0 1 5,-5z" style="stroke: rgb(0, 0, 0); fill: rgb(51, 85, 136); stroke-width: 0;"/><text x="6" y="14" style="font-family: -apple-system, BlinkMacSystemFont, &quot;Segoe WPC&quot;, &quot;Segoe UI&quot;, Ubuntu, &quot;Droid Sans&quot;, sans-serif, &quot;PingFang SC&quot;; font-size: 11px; text-rendering: geometricprecision; fill: rgb(255, 255, 255);">Conv2D</text><title>0</title></g><g class="node-attribute" transform="translate(0,20)"><path d="M0,0h100a0,0 0 0 1 0,0v30a0,0 0 0 1 0,0h-100a0,0 0 0 1 0,0v-30a0,0 0 0 1 0,0z" style="stroke: rgb(0, 0, 0); fill: rgb(255, 255, 255); stroke-width: 0;"/><text id="initializer-sequential/conv2d/Conv2D&#10;12" xml:space="preserve" x="6" y="12" style="font-family: -apple-system, BlinkMacSystemFont, &quot;Segoe WPC&quot;, &quot;Segoe UI&quot;, Ubuntu, &quot;Droid Sans&quot;, sans-serif, &quot;PingFang SC&quot;; font-size: 9px; font-weight: normal; text-rendering: geometricprecision;"><title>float32[32,3,3,3]</title><tspan style="font-weight: bold;">filter</tspan><tspan>〈32×3×3×3〉</tspan></text><text id="initializer-sequential/conv2d/BiasAdd/ReadVariableOp/resource&#10;1" xml:space="preserve" x="6" y="24" style="font-family: -apple-system, BlinkMacSystemFont, &quot;Segoe WPC&quot;, &quot;Segoe UI&quot;, Ubuntu, &quot;Droid Sans&quot;, sans-serif, &quot;PingFang SC&quot;; font-size: 9px; font-weight: normal; text-rendering: geometricprecision;"><title>float32[32]</title><tspan style="font-weight: bold;">bias</tspan><tspan>〈32〉</tspan></text><line class="node" x1="0" x2="100" y1="0" y2="0" style="stroke: rgb(51, 51, 51); fill: none; stroke-width: 1px;"/></g><g class="node-item node-item-type node-item-type-activation" transform="translate(0,50)"><path d="M0,0h100a0,0 0 0 1 0,0v15a5,5 0 0 1 -5,5h-90a5,5 0 0 1 -5,-5v-15a0,0 0 0 1 0,0z" style="stroke: rgb(0, 0, 0); fill: rgb(75, 27, 22); stroke-width: 0;"/><text x="6" y="14" style="font-family: -apple-system, BlinkMacSystemFont, &quot;Segoe WPC&quot;, &quot;Segoe UI&quot;, Ubuntu, &quot;Droid Sans&quot;, sans-serif, &quot;PingFang SC&quot;; font-size: 11px; text-rendering: geometricprecision; fill: rgb(255, 255, 255);">Relu</text></g><line class="node" x1="0" x2="100" y1="50" y2="50" style="stroke: rgb(51, 51, 51); fill: none; stroke-width: 1px;"/><path class="node border" d="M5,0h90a5,5 0 0 1 5,5v60a5,5 0 0 1 -5,5h-90a5,5 0 0 1 -5,-5v-60a5,5 0 0 1 5,-5z" style="stroke: rgb(51, 51, 51); fill: none; stroke-width: 1px;"/></g></g><g id="node-id-1" class="node graph-node" transform="translate(53.21875,207)" style="opacity: 1;"><g transform="translate(-50,-35)"><g class="node-item node-item-type node-item-type-layer" transform="translate(0,0)"><path d="M5,0h90a5,5 0 0 1 5,5v15a0,0 0 0 1 0,0h-100a0,0 0 0 1 0,0v-15a5,5 0 0 1 5,-5z" style="stroke: rgb(0, 0, 0); fill: rgb(51, 85, 136); stroke-width: 0;"/><text x="6" y="14" style="font-family: -apple-system, BlinkMacSystemFont, &quot;Segoe WPC&quot;, &quot;Segoe UI&quot;, Ubuntu, &quot;Droid Sans&quot;, sans-serif, &quot;PingFang SC&quot;; font-size: 11px; text-rendering: geometricprecision; fill: rgb(255, 255, 255);">Conv2D</text><title>1</title></g><g class="node-attribute" transform="translate(0,20)"><path d="M0,0h100a0,0 0 0 1 0,0v30a0,0 0 0 1 0,0h-100a0,0 0 0 1 0,0v-30a0,0 0 0 1 0,0z" style="stroke: rgb(0, 0, 0); fill: rgb(255, 255, 255); stroke-width: 0;"/><text id="initializer-sequential/conv2d_1/Conv2D&#10;13" xml:space="preserve" x="6" y="12" style="font-family: -apple-system, BlinkMacSystemFont, &quot;Segoe WPC&quot;, &quot;Segoe UI&quot;, Ubuntu, &quot;Droid Sans&quot;, sans-serif, &quot;PingFang SC&quot;; font-size: 9px; font-weight: normal; text-rendering: geometricprecision;"><title>float32[32,3,3,32]</title><tspan style="font-weight: bold;">filter</tspan><tspan>〈32×3×3×32〉</tspan></text><text id="initializer-sequential/conv2d_1/BiasAdd/ReadVariableOp/resource&#10;2" xml:space="preserve" x="6" y="24" style="font-family: -apple-system, BlinkMacSystemFont, &quot;Segoe WPC&quot;, &quot;Segoe UI&quot;, Ubuntu, &quot;Droid Sans&quot;, sans-serif, &quot;PingFang SC&quot;; font-size: 9px; font-weight: normal; text-rendering: geometricprecision;"><title>float32[32]</title><tspan style="font-weight: bold;">bias</tspan><tspan>〈32〉</tspan></text><line class="node" x1="0" x2="100" y1="0" y2="0" style="stroke: rgb(51, 51, 51); fill: none; stroke-width: 1px;"/></g><g class="node-item node-item-type node-item-type-activation" transform="translate(0,50)"><path d="M0,0h100a0,0 0 0 1 0,0v15a5,5 0 0 1 -5,5h-90a5,5 0 0 1 -5,-5v-15a0,0 0 0 1 0,0z" style="stroke: rgb(0, 0, 0); fill: rgb(75, 27, 22); stroke-width: 0;"/><text x="6" y="14" style="font-family: -apple-system, BlinkMacSystemFont, &quot;Segoe WPC&quot;, &quot;Segoe UI&quot;, Ubuntu, &quot;Droid Sans&quot;, sans-serif, &quot;PingFang SC&quot;; font-size: 11px; text-rendering: geometricprecision; fill: rgb(255, 255, 255);">Relu</text></g><line class="node" x1="0" x2="100" y1="50" y2="50" style="stroke: rgb(51, 51, 51); fill: none; stroke-width: 1px;"/><path class="node border" d="M5,0h90a5,5 0 0 1 5,5v60a5,5 0 0 1 -5,5h-90a5,5 0 0 1 -5,-5v-60a5,5 0 0 1 5,-5z" style="stroke: rgb(51, 51, 51); fill: none; stroke-width: 1px;"/></g></g><g id="node-id-2" class="node graph-node" transform="translate(53.21875,293)" style="opacity: 1;"><g transform="translate(-35.796875,-10)"><g class="node-item node-item-type node-item-type-pool" transform="translate(0,0)"><path d="M5,0h61.59375a5,5 0 0 1 5,5v10a5,5 0 0 1 -5,5h-61.59375a5,5 0 0 1 -5,-5v-10a5,5 0 0 1 5,-5z" style="stroke: rgb(0, 0, 0); fill: rgb(51, 85, 51); stroke-width: 0;"/><text x="6" y="14" style="font-family: -apple-system, BlinkMacSystemFont, &quot;Segoe WPC&quot;, &quot;Segoe UI&quot;, Ubuntu, &quot;Droid Sans&quot;, sans-serif, &quot;PingFang SC&quot;; font-size: 11px; text-rendering: geometricprecision; fill: rgb(255, 255, 255);">MaxPool2D</text><title>2</title></g><path class="node border" d="M5,0h61.59375a5,5 0 0 1 5,5v10a5,5 0 0 1 -5,5h-61.59375a5,5 0 0 1 -5,-5v-10a5,5 0 0 1 5,-5z" style="stroke: rgb(51, 51, 51); fill: none; stroke-width: 1px;"/></g></g><g id="node-id-3" class="node graph-node" transform="translate(53.21875,379)" style="opacity: 1;"><g transform="translate(-50,-35)"><g class="node-item node-item-type node-item-type-layer" transform="translate(0,0)"><path d="M5,0h90a5,5 0 0 1 5,5v15a0,0 0 0 1 0,0h-100a0,0 0 0 1 0,0v-15a5,5 0 0 1 5,-5z" style="stroke: rgb(0, 0, 0); fill: rgb(51, 85, 136); stroke-width: 0;"/><text x="6" y="14" style="font-family: -apple-system, BlinkMacSystemFont, &quot;Segoe WPC&quot;, &quot;Segoe UI&quot;, Ubuntu, &quot;Droid Sans&quot;, sans-serif, &quot;PingFang SC&quot;; font-size: 11px; text-rendering: geometricprecision; fill: rgb(255, 255, 255);">Conv2D</text><title>3</title></g><g class="node-attribute" transform="translate(0,20)"><path d="M0,0h100a0,0 0 0 1 0,0v30a0,0 0 0 1 0,0h-100a0,0 0 0 1 0,0v-30a0,0 0 0 1 0,0z" style="stroke: rgb(0, 0, 0); fill: rgb(255, 255, 255); stroke-width: 0;"/><text id="initializer-sequential/conv2d_2/Conv2D&#10;14" xml:space="preserve" x="6" y="12" style="font-family: -apple-system, BlinkMacSystemFont, &quot;Segoe WPC&quot;, &quot;Segoe UI&quot;, Ubuntu, &quot;Droid Sans&quot;, sans-serif, &quot;PingFang SC&quot;; font-size: 9px; font-weight: normal; text-rendering: geometricprecision;"><title>float32[64,3,3,32]</title><tspan style="font-weight: bold;">filter</tspan><tspan>〈64×3×3×32〉</tspan></text><text id="initializer-sequential/conv2d_2/BiasAdd/ReadVariableOp/resource&#10;3" xml:space="preserve" x="6" y="24" style="font-family: -apple-system, BlinkMacSystemFont, &quot;Segoe WPC&quot;, &quot;Segoe UI&quot;, Ubuntu, &quot;Droid Sans&quot;, sans-serif, &quot;PingFang SC&quot;; font-size: 9px; font-weight: normal; text-rendering: geometricprecision;"><title>float32[64]</title><tspan style="font-weight: bold;">bias</tspan><tspan>〈64〉</tspan></text><line class="node" x1="0" x2="100" y1="0" y2="0" style="stroke: rgb(51, 51, 51); fill: none; stroke-width: 1px;"/></g><g class="node-item node-item-type node-item-type-activation" transform="translate(0,50)"><path d="M0,0h100a0,0 0 0 1 0,0v15a5,5 0 0 1 -5,5h-90a5,5 0 0 1 -5,-5v-15a0,0 0 0 1 0,0z" style="stroke: rgb(0, 0, 0); fill: rgb(75, 27, 22); stroke-width: 0;"/><text x="6" y="14" style="font-family: -apple-system, BlinkMacSystemFont, &quot;Segoe WPC&quot;, &quot;Segoe UI&quot;, Ubuntu, &quot;Droid Sans&quot;, sans-serif, &quot;PingFang SC&quot;; font-size: 11px; text-rendering: geometricprecision; fill: rgb(255, 255, 255);">Relu</text></g><line class="node" x1="0" x2="100" y1="50" y2="50" style="stroke: rgb(51, 51, 51); fill: none; stroke-width: 1px;"/><path class="node border" d="M5,0h90a5,5 0 0 1 5,5v60a5,5 0 0 1 -5,5h-90a5,5 0 0 1 -5,-5v-60a5,5 0 0 1 5,-5z" style="stroke: rgb(51, 51, 51); fill: none; stroke-width: 1px;"/></g></g><g id="node-id-4" class="node graph-node" transform="translate(53.21875,490)" style="opacity: 1;"><g transform="translate(-50,-35)"><g class="node-item node-item-type node-item-type-layer" transform="translate(0,0)"><path d="M5,0h90a5,5 0 0 1 5,5v15a0,0 0 0 1 0,0h-100a0,0 0 0 1 0,0v-15a5,5 0 0 1 5,-5z" style="stroke: rgb(0, 0, 0); fill: rgb(51, 85, 136); stroke-width: 0;"/><text x="6" y="14" style="font-family: -apple-system, BlinkMacSystemFont, &quot;Segoe WPC&quot;, &quot;Segoe UI&quot;, Ubuntu, &quot;Droid Sans&quot;, sans-serif, &quot;PingFang SC&quot;; font-size: 11px; text-rendering: geometricprecision; fill: rgb(255, 255, 255);">Conv2D</text><title>4</title></g><g class="node-attribute" transform="translate(0,20)"><path d="M0,0h100a0,0 0 0 1 0,0v30a0,0 0 0 1 0,0h-100a0,0 0 0 1 0,0v-30a0,0 0 0 1 0,0z" style="stroke: rgb(0, 0, 0); fill: rgb(255, 255, 255); stroke-width: 0;"/><text id="initializer-sequential/conv2d_3/Conv2D&#10;15" xml:space="preserve" x="6" y="12" style="font-family: -apple-system, BlinkMacSystemFont, &quot;Segoe WPC&quot;, &quot;Segoe UI&quot;, Ubuntu, &quot;Droid Sans&quot;, sans-serif, &quot;PingFang SC&quot;; font-size: 9px; font-weight: normal; text-rendering: geometricprecision;"><title>float32[64,3,3,64]</title><tspan style="font-weight: bold;">filter</tspan><tspan>〈64×3×3×64〉</tspan></text><text id="initializer-sequential/conv2d_3/BiasAdd/ReadVariableOp/resource&#10;4" xml:space="preserve" x="6" y="24" style="font-family: -apple-system, BlinkMacSystemFont, &quot;Segoe WPC&quot;, &quot;Segoe UI&quot;, Ubuntu, &quot;Droid Sans&quot;, sans-serif, &quot;PingFang SC&quot;; font-size: 9px; font-weight: normal; text-rendering: geometricprecision;"><title>float32[64]</title><tspan style="font-weight: bold;">bias</tspan><tspan>〈64〉</tspan></text><line class="node" x1="0" x2="100" y1="0" y2="0" style="stroke: rgb(51, 51, 51); fill: none; stroke-width: 1px;"/></g><g class="node-item node-item-type node-item-type-activation" transform="translate(0,50)"><path d="M0,0h100a0,0 0 0 1 0,0v15a5,5 0 0 1 -5,5h-90a5,5 0 0 1 -5,-5v-15a0,0 0 0 1 0,0z" style="stroke: rgb(0, 0, 0); fill: rgb(75, 27, 22); stroke-width: 0;"/><text x="6" y="14" style="font-family: -apple-system, BlinkMacSystemFont, &quot;Segoe WPC&quot;, &quot;Segoe UI&quot;, Ubuntu, &quot;Droid Sans&quot;, sans-serif, &quot;PingFang SC&quot;; font-size: 11px; text-rendering: geometricprecision; fill: rgb(255, 255, 255);">Relu</text></g><line class="node" x1="0" x2="100" y1="50" y2="50" style="stroke: rgb(51, 51, 51); fill: none; stroke-width: 1px;"/><path class="node border" d="M5,0h90a5,5 0 0 1 5,5v60a5,5 0 0 1 -5,5h-90a5,5 0 0 1 -5,-5v-60a5,5 0 0 1 5,-5z" style="stroke: rgb(51, 51, 51); fill: none; stroke-width: 1px;"/></g></g><g id="node-id-5" class="node graph-node" transform="translate(53.21875,576)" style="opacity: 1;"><g transform="translate(-35.796875,-10)"><g class="node-item node-item-type node-item-type-pool" transform="translate(0,0)"><path d="M5,0h61.59375a5,5 0 0 1 5,5v10a5,5 0 0 1 -5,5h-61.59375a5,5 0 0 1 -5,-5v-10a5,5 0 0 1 5,-5z" style="stroke: rgb(0, 0, 0); fill: rgb(51, 85, 51); stroke-width: 0;"/><text x="6" y="14" style="font-family: -apple-system, BlinkMacSystemFont, &quot;Segoe WPC&quot;, &quot;Segoe UI&quot;, Ubuntu, &quot;Droid Sans&quot;, sans-serif, &quot;PingFang SC&quot;; font-size: 11px; text-rendering: geometricprecision; fill: rgb(255, 255, 255);">MaxPool2D</text><title>5</title></g><path class="node border" d="M5,0h61.59375a5,5 0 0 1 5,5v10a5,5 0 0 1 -5,5h-61.59375a5,5 0 0 1 -5,-5v-10a5,5 0 0 1 5,-5z" style="stroke: rgb(51, 51, 51); fill: none; stroke-width: 1px;"/></g></g><g id="node-id-6" class="node graph-node" transform="translate(53.21875,652)" style="opacity: 1;"><g transform="translate(-53.21875,-25)"><g class="node-item node-item-type node-item-type-layer" transform="translate(0,0)"><path d="M5,0h96.4375a5,5 0 0 1 5,5v15a0,0 0 0 1 0,0h-106.4375a0,0 0 0 1 0,0v-15a5,5 0 0 1 5,-5z" style="stroke: rgb(0, 0, 0); fill: rgb(51, 85, 136); stroke-width: 0;"/><text x="6" y="14" style="font-family: -apple-system, BlinkMacSystemFont, &quot;Segoe WPC&quot;, &quot;Segoe UI&quot;, Ubuntu, &quot;Droid Sans&quot;, sans-serif, &quot;PingFang SC&quot;; font-size: 11px; text-rendering: geometricprecision; fill: rgb(255, 255, 255);">DepthwiseConv2D</text><title>6</title></g><g class="node-attribute" transform="translate(0,20)"><path d="M0,0h106.4375a0,0 0 0 1 0,0v25a5,5 0 0 1 -5,5h-96.4375a5,5 0 0 1 -5,-5v-25a0,0 0 0 1 0,0z" style="stroke: rgb(0, 0, 0); fill: rgb(255, 255, 255); stroke-width: 0;"/><text id="initializer-sequential/separable_conv2d/separable_conv2d/depthwise1&#10;17" xml:space="preserve" x="6" y="12" style="font-family: -apple-system, BlinkMacSystemFont, &quot;Segoe WPC&quot;, &quot;Segoe UI&quot;, Ubuntu, &quot;Droid Sans&quot;, sans-serif, &quot;PingFang SC&quot;; font-size: 9px; font-weight: normal; text-rendering: geometricprecision;"><title>float32[1,3,3,64]</title><tspan style="font-weight: bold;">weights</tspan><tspan>〈1×3×3×64〉</tspan></text><text id="initializer-sequential/separable_conv2d/separable_conv2d/depthwise&#10;16" xml:space="preserve" x="6" y="24" style="font-family: -apple-system, BlinkMacSystemFont, &quot;Segoe WPC&quot;, &quot;Segoe UI&quot;, Ubuntu, &quot;Droid Sans&quot;, sans-serif, &quot;PingFang SC&quot;; font-size: 9px; font-weight: normal; text-rendering: geometricprecision;"><title>float32[64]</title><tspan style="font-weight: bold;">bias</tspan><tspan>〈64〉</tspan></text><line class="node" x1="0" x2="106.4375" y1="0" y2="0" style="stroke: rgb(51, 51, 51); fill: none; stroke-width: 1px;"/></g><path class="node border" d="M5,0h96.4375a5,5 0 0 1 5,5v40a5,5 0 0 1 -5,5h-96.4375a5,5 0 0 1 -5,-5v-40a5,5 0 0 1 5,-5z" style="stroke: rgb(51, 51, 51); fill: none; stroke-width: 1px;"/></g></g><g id="node-id-7" class="node graph-node" transform="translate(53.21875,753)" style="opacity: 1;"><g transform="translate(-50,-35)"><g class="node-item node-item-type node-item-type-layer" transform="translate(0,0)"><path d="M5,0h90a5,5 0 0 1 5,5v15a0,0 0 0 1 0,0h-100a0,0 0 0 1 0,0v-15a5,5 0 0 1 5,-5z" style="stroke: rgb(0, 0, 0); fill: rgb(51, 85, 136); stroke-width: 0;"/><text x="6" y="14" style="font-family: -apple-system, BlinkMacSystemFont, &quot;Segoe WPC&quot;, &quot;Segoe UI&quot;, Ubuntu, &quot;Droid Sans&quot;, sans-serif, &quot;PingFang SC&quot;; font-size: 11px; text-rendering: geometricprecision; fill: rgb(255, 255, 255);">Conv2D</text><title>7</title></g><g class="node-attribute" transform="translate(0,20)"><path d="M0,0h100a0,0 0 0 1 0,0v30a0,0 0 0 1 0,0h-100a0,0 0 0 1 0,0v-30a0,0 0 0 1 0,0z" style="stroke: rgb(0, 0, 0); fill: rgb(255, 255, 255); stroke-width: 0;"/><text id="initializer-sequential/separable_conv2d/separable_conv2d&#10;18" xml:space="preserve" x="6" y="12" style="font-family: -apple-system, BlinkMacSystemFont, &quot;Segoe WPC&quot;, &quot;Segoe UI&quot;, Ubuntu, &quot;Droid Sans&quot;, sans-serif, &quot;PingFang SC&quot;; font-size: 9px; font-weight: normal; text-rendering: geometricprecision;"><title>float32[128,1,1,64]</title><tspan style="font-weight: bold;">filter</tspan><tspan>〈128×1×1×64〉</tspan></text><text id="initializer-sequential/separable_conv2d/BiasAdd/ReadVariableOp/resource&#10;8" xml:space="preserve" x="6" y="24" style="font-family: -apple-system, BlinkMacSystemFont, &quot;Segoe WPC&quot;, &quot;Segoe UI&quot;, Ubuntu, &quot;Droid Sans&quot;, sans-serif, &quot;PingFang SC&quot;; font-size: 9px; font-weight: normal; text-rendering: geometricprecision;"><title>float32[128]</title><tspan style="font-weight: bold;">bias</tspan><tspan>〈128〉</tspan></text><line class="node" x1="0" x2="100" y1="0" y2="0" style="stroke: rgb(51, 51, 51); fill: none; stroke-width: 1px;"/></g><g class="node-item node-item-type node-item-type-activation" transform="translate(0,50)"><path d="M0,0h100a0,0 0 0 1 0,0v15a5,5 0 0 1 -5,5h-90a5,5 0 0 1 -5,-5v-15a0,0 0 0 1 0,0z" style="stroke: rgb(0, 0, 0); fill: rgb(75, 27, 22); stroke-width: 0;"/><text x="6" y="14" style="font-family: -apple-system, BlinkMacSystemFont, &quot;Segoe WPC&quot;, &quot;Segoe UI&quot;, Ubuntu, &quot;Droid Sans&quot;, sans-serif, &quot;PingFang SC&quot;; font-size: 11px; text-rendering: geometricprecision; fill: rgb(255, 255, 255);">Relu</text></g><line class="node" x1="0" x2="100" y1="50" y2="50" style="stroke: rgb(51, 51, 51); fill: none; stroke-width: 1px;"/><path class="node border" d="M5,0h90a5,5 0 0 1 5,5v60a5,5 0 0 1 -5,5h-90a5,5 0 0 1 -5,-5v-60a5,5 0 0 1 5,-5z" style="stroke: rgb(51, 51, 51); fill: none; stroke-width: 1px;"/></g></g><g id="node-id-8" class="node graph-node" transform="translate(53.21875,854)" style="opacity: 1;"><g transform="translate(-53.21875,-25)"><g class="node-item node-item-type node-item-type-layer" transform="translate(0,0)"><path d="M5,0h96.4375a5,5 0 0 1 5,5v15a0,0 0 0 1 0,0h-106.4375a0,0 0 0 1 0,0v-15a5,5 0 0 1 5,-5z" style="stroke: rgb(0, 0, 0); fill: rgb(51, 85, 136); stroke-width: 0;"/><text x="6" y="14" style="font-family: -apple-system, BlinkMacSystemFont, &quot;Segoe WPC&quot;, &quot;Segoe UI&quot;, Ubuntu, &quot;Droid Sans&quot;, sans-serif, &quot;PingFang SC&quot;; font-size: 11px; text-rendering: geometricprecision; fill: rgb(255, 255, 255);">DepthwiseConv2D</text><title>8</title></g><g class="node-attribute" transform="translate(0,20)"><path d="M0,0h106.4375a0,0 0 0 1 0,0v25a5,5 0 0 1 -5,5h-96.4375a5,5 0 0 1 -5,-5v-25a0,0 0 0 1 0,0z" style="stroke: rgb(0, 0, 0); fill: rgb(255, 255, 255); stroke-width: 0;"/><text id="initializer-sequential/separable_conv2d_1/separable_conv2d/depthwise&#10;19" xml:space="preserve" x="6" y="12" style="font-family: -apple-system, BlinkMacSystemFont, &quot;Segoe WPC&quot;, &quot;Segoe UI&quot;, Ubuntu, &quot;Droid Sans&quot;, sans-serif, &quot;PingFang SC&quot;; font-size: 9px; font-weight: normal; text-rendering: geometricprecision;"><title>float32[1,3,3,128]</title><tspan style="font-weight: bold;">weights</tspan><tspan>〈1×3×3×128〉</tspan></text><text id="initializer-sequential/separable_conv2d_1/separable_conv2d&#10;20" xml:space="preserve" x="6" y="24" style="font-family: -apple-system, BlinkMacSystemFont, &quot;Segoe WPC&quot;, &quot;Segoe UI&quot;, Ubuntu, &quot;Droid Sans&quot;, sans-serif, &quot;PingFang SC&quot;; font-size: 9px; font-weight: normal; text-rendering: geometricprecision;"><title>float32[128]</title><tspan style="font-weight: bold;">bias</tspan><tspan>〈128〉</tspan></text><line class="node" x1="0" x2="106.4375" y1="0" y2="0" style="stroke: rgb(51, 51, 51); fill: none; stroke-width: 1px;"/></g><path class="node border" d="M5,0h96.4375a5,5 0 0 1 5,5v40a5,5 0 0 1 -5,5h-96.4375a5,5 0 0 1 -5,-5v-40a5,5 0 0 1 5,-5z" style="stroke: rgb(51, 51, 51); fill: none; stroke-width: 1px;"/></g></g><g id="node-id-9" class="node graph-node" transform="translate(53.21875,955)" style="opacity: 1;"><g transform="translate(-50,-35)"><g class="node-item node-item-type node-item-type-layer" transform="translate(0,0)"><path d="M5,0h90a5,5 0 0 1 5,5v15a0,0 0 0 1 0,0h-100a0,0 0 0 1 0,0v-15a5,5 0 0 1 5,-5z" style="stroke: rgb(0, 0, 0); fill: rgb(51, 85, 136); stroke-width: 0;"/><text x="6" y="14" style="font-family: -apple-system, BlinkMacSystemFont, &quot;Segoe WPC&quot;, &quot;Segoe UI&quot;, Ubuntu, &quot;Droid Sans&quot;, sans-serif, &quot;PingFang SC&quot;; font-size: 11px; text-rendering: geometricprecision; fill: rgb(255, 255, 255);">Conv2D</text><title>9</title></g><g class="node-attribute" transform="translate(0,20)"><path d="M0,0h100a0,0 0 0 1 0,0v30a0,0 0 0 1 0,0h-100a0,0 0 0 1 0,0v-30a0,0 0 0 1 0,0z" style="stroke: rgb(0, 0, 0); fill: rgb(255, 255, 255); stroke-width: 0;"/><text id="initializer-sequential/separable_conv2d_1/separable_conv2d1&#10;21" xml:space="preserve" x="6" y="12" style="font-family: -apple-system, BlinkMacSystemFont, &quot;Segoe WPC&quot;, &quot;Segoe UI&quot;, Ubuntu, &quot;Droid Sans&quot;, sans-serif, &quot;PingFang SC&quot;; font-size: 9px; font-weight: normal; text-rendering: geometricprecision;"><title>float32[128,1,1,128]</title><tspan style="font-weight: bold;">filter</tspan><tspan>〈128×1×1×128〉</tspan></text><text id="initializer-sequential/separable_conv2d_1/BiasAdd/ReadVariableOp/resource&#10;9" xml:space="preserve" x="6" y="24" style="font-family: -apple-system, BlinkMacSystemFont, &quot;Segoe WPC&quot;, &quot;Segoe UI&quot;, Ubuntu, &quot;Droid Sans&quot;, sans-serif, &quot;PingFang SC&quot;; font-size: 9px; font-weight: normal; text-rendering: geometricprecision;"><title>float32[128]</title><tspan style="font-weight: bold;">bias</tspan><tspan>〈128〉</tspan></text><line class="node" x1="0" x2="100" y1="0" y2="0" style="stroke: rgb(51, 51, 51); fill: none; stroke-width: 1px;"/></g><g class="node-item node-item-type node-item-type-activation" transform="translate(0,50)"><path d="M0,0h100a0,0 0 0 1 0,0v15a5,5 0 0 1 -5,5h-90a5,5 0 0 1 -5,-5v-15a0,0 0 0 1 0,0z" style="stroke: rgb(0, 0, 0); fill: rgb(75, 27, 22); stroke-width: 0;"/><text x="6" y="14" style="font-family: -apple-system, BlinkMacSystemFont, &quot;Segoe WPC&quot;, &quot;Segoe UI&quot;, Ubuntu, &quot;Droid Sans&quot;, sans-serif, &quot;PingFang SC&quot;; font-size: 11px; text-rendering: geometricprecision; fill: rgb(255, 255, 255);">Relu</text></g><line class="node" x1="0" x2="100" y1="50" y2="50" style="stroke: rgb(51, 51, 51); fill: none; stroke-width: 1px;"/><path class="node border" d="M5,0h90a5,5 0 0 1 5,5v60a5,5 0 0 1 -5,5h-90a5,5 0 0 1 -5,-5v-60a5,5 0 0 1 5,-5z" style="stroke: rgb(51, 51, 51); fill: none; stroke-width: 1px;"/></g></g><g id="node-id-10" class="node graph-node" transform="translate(53.21875,1041)" style="opacity: 1;"><g transform="translate(-35.796875,-10)"><g class="node-item node-item-type node-item-type-pool" transform="translate(0,0)"><path d="M5,0h61.59375a5,5 0 0 1 5,5v10a5,5 0 0 1 -5,5h-61.59375a5,5 0 0 1 -5,-5v-10a5,5 0 0 1 5,-5z" style="stroke: rgb(0, 0, 0); fill: rgb(51, 85, 51); stroke-width: 0;"/><text x="6" y="14" style="font-family: -apple-system, BlinkMacSystemFont, &quot;Segoe WPC&quot;, &quot;Segoe UI&quot;, Ubuntu, &quot;Droid Sans&quot;, sans-serif, &quot;PingFang SC&quot;; font-size: 11px; text-rendering: geometricprecision; fill: rgb(255, 255, 255);">MaxPool2D</text><title>10</title></g><path class="node border" d="M5,0h61.59375a5,5 0 0 1 5,5v10a5,5 0 0 1 -5,5h-61.59375a5,5 0 0 1 -5,-5v-10a5,5 0 0 1 5,-5z" style="stroke: rgb(51, 51, 51); fill: none; stroke-width: 1px;"/></g></g><g id="node-id-11" class="node graph-node" transform="translate(53.21875,1111)" style="opacity: 1;"><g transform="translate(-50,-19)"><g class="node-item node-item-type node-item-type-shape" transform="translate(0,0)"><path d="M5,0h90a5,5 0 0 1 5,5v15a0,0 0 0 1 0,0h-100a0,0 0 0 1 0,0v-15a5,5 0 0 1 5,-5z" style="stroke: rgb(0, 0, 0); fill: rgb(108, 79, 71); stroke-width: 0;"/><text x="6" y="14" style="font-family: -apple-system, BlinkMacSystemFont, &quot;Segoe WPC&quot;, &quot;Segoe UI&quot;, Ubuntu, &quot;Droid Sans&quot;, sans-serif, &quot;PingFang SC&quot;; font-size: 11px; text-rendering: geometricprecision; fill: rgb(255, 255, 255);">Reshape</text><title>11</title></g><g class="node-attribute" transform="translate(0,20)"><path d="M0,0h100a0,0 0 0 1 0,0v13a5,5 0 0 1 -5,5h-90a5,5 0 0 1 -5,-5v-13a0,0 0 0 1 0,0z" style="stroke: rgb(0, 0, 0); fill: rgb(255, 255, 255); stroke-width: 0;"/><text id="initializer-sequential/flatten/Const&#10;7" xml:space="preserve" x="6" y="12" style="font-family: -apple-system, BlinkMacSystemFont, &quot;Segoe WPC&quot;, &quot;Segoe UI&quot;, Ubuntu, &quot;Droid Sans&quot;, sans-serif, &quot;PingFang SC&quot;; font-size: 9px; font-weight: normal; text-rendering: geometricprecision;"><title>int32[2]</title><tspan style="font-weight: bold;">shape</tspan><tspan>〈2〉</tspan></text><line class="node" x1="0" x2="100" y1="0" y2="0" style="stroke: rgb(51, 51, 51); fill: none; stroke-width: 1px;"/></g><path class="node border" d="M5,0h90a5,5 0 0 1 5,5v28a5,5 0 0 1 -5,5h-90a5,5 0 0 1 -5,-5v-28a5,5 0 0 1 5,-5z" style="stroke: rgb(51, 51, 51); fill: none; stroke-width: 1px;"/></g></g><g id="node-id-12" class="node graph-node" transform="translate(53.21875,1206)" style="opacity: 1;"><g transform="translate(-50,-35)"><g class="node-item node-item-type node-item-type-layer" transform="translate(0,0)"><path d="M5,0h90a5,5 0 0 1 5,5v15a0,0 0 0 1 0,0h-100a0,0 0 0 1 0,0v-15a5,5 0 0 1 5,-5z" style="stroke: rgb(0, 0, 0); fill: rgb(51, 85, 136); stroke-width: 0;"/><text x="6" y="14" style="font-family: -apple-system, BlinkMacSystemFont, &quot;Segoe WPC&quot;, &quot;Segoe UI&quot;, Ubuntu, &quot;Droid Sans&quot;, sans-serif, &quot;PingFang SC&quot;; font-size: 11px; text-rendering: geometricprecision; fill: rgb(255, 255, 255);">FullyConnected</text><title>12</title></g><g class="node-attribute" transform="translate(0,20)"><path d="M0,0h100a0,0 0 0 1 0,0v30a0,0 0 0 1 0,0h-100a0,0 0 0 1 0,0v-30a0,0 0 0 1 0,0z" style="stroke: rgb(0, 0, 0); fill: rgb(255, 255, 255); stroke-width: 0;"/><text id="initializer-sequential/dense/MatMul&#10;10" xml:space="preserve" x="6" y="12" style="font-family: -apple-system, BlinkMacSystemFont, &quot;Segoe WPC&quot;, &quot;Segoe UI&quot;, Ubuntu, &quot;Droid Sans&quot;, sans-serif, &quot;PingFang SC&quot;; font-size: 9px; font-weight: normal; text-rendering: geometricprecision;"><title>float32[128,2048]</title><tspan style="font-weight: bold;">weights</tspan><tspan>〈128×2048〉</tspan></text><text id="initializer-sequential/dense/BiasAdd/ReadVariableOp/resource&#10;5" xml:space="preserve" x="6" y="24" style="font-family: -apple-system, BlinkMacSystemFont, &quot;Segoe WPC&quot;, &quot;Segoe UI&quot;, Ubuntu, &quot;Droid Sans&quot;, sans-serif, &quot;PingFang SC&quot;; font-size: 9px; font-weight: normal; text-rendering: geometricprecision;"><title>float32[128]</title><tspan style="font-weight: bold;">bias</tspan><tspan>〈128〉</tspan></text><line class="node" x1="0" x2="100" y1="0" y2="0" style="stroke: rgb(51, 51, 51); fill: none; stroke-width: 1px;"/></g><g class="node-item node-item-type node-item-type-activation" transform="translate(0,50)"><path d="M0,0h100a0,0 0 0 1 0,0v15a5,5 0 0 1 -5,5h-90a5,5 0 0 1 -5,-5v-15a0,0 0 0 1 0,0z" style="stroke: rgb(0, 0, 0); fill: rgb(75, 27, 22); stroke-width: 0;"/><text x="6" y="14" style="font-family: -apple-system, BlinkMacSystemFont, &quot;Segoe WPC&quot;, &quot;Segoe UI&quot;, Ubuntu, &quot;Droid Sans&quot;, sans-serif, &quot;PingFang SC&quot;; font-size: 11px; text-rendering: geometricprecision; fill: rgb(255, 255, 255);">Relu</text></g><line class="node" x1="0" x2="100" y1="50" y2="50" style="stroke: rgb(51, 51, 51); fill: none; stroke-width: 1px;"/><path class="node border" d="M5,0h90a5,5 0 0 1 5,5v60a5,5 0 0 1 -5,5h-90a5,5 0 0 1 -5,-5v-60a5,5 0 0 1 5,-5z" style="stroke: rgb(51, 51, 51); fill: none; stroke-width: 1px;"/></g></g><g id="node-id-13" class="node graph-node" transform="translate(53.21875,1307)" style="opacity: 1;"><g transform="translate(-50,-25)"><g class="node-item node-item-type node-item-type-layer" transform="translate(0,0)"><path d="M5,0h90a5,5 0 0 1 5,5v15a0,0 0 0 1 0,0h-100a0,0 0 0 1 0,0v-15a5,5 0 0 1 5,-5z" style="stroke: rgb(0, 0, 0); fill: rgb(51, 85, 136); stroke-width: 0;"/><text x="6" y="14" style="font-family: -apple-system, BlinkMacSystemFont, &quot;Segoe WPC&quot;, &quot;Segoe UI&quot;, Ubuntu, &quot;Droid Sans&quot;, sans-serif, &quot;PingFang SC&quot;; font-size: 11px; text-rendering: geometricprecision; fill: rgb(255, 255, 255);">FullyConnected</text><title>13</title></g><g class="node-attribute" transform="translate(0,20)"><path d="M0,0h100a0,0 0 0 1 0,0v25a5,5 0 0 1 -5,5h-90a5,5 0 0 1 -5,-5v-25a0,0 0 0 1 0,0z" style="stroke: rgb(0, 0, 0); fill: rgb(255, 255, 255); stroke-width: 0;"/><text id="initializer-sequential/dense_1/MatMul&#10;11" xml:space="preserve" x="6" y="12" style="font-family: -apple-system, BlinkMacSystemFont, &quot;Segoe WPC&quot;, &quot;Segoe UI&quot;, Ubuntu, &quot;Droid Sans&quot;, sans-serif, &quot;PingFang SC&quot;; font-size: 9px; font-weight: normal; text-rendering: geometricprecision;"><title>float32[10,128]</title><tspan style="font-weight: bold;">weights</tspan><tspan>〈10×128〉</tspan></text><text id="initializer-sequential/dense_1/BiasAdd/ReadVariableOp/resource&#10;6" xml:space="preserve" x="6" y="24" style="font-family: -apple-system, BlinkMacSystemFont, &quot;Segoe WPC&quot;, &quot;Segoe UI&quot;, Ubuntu, &quot;Droid Sans&quot;, sans-serif, &quot;PingFang SC&quot;; font-size: 9px; font-weight: normal; text-rendering: geometricprecision;"><title>float32[10]</title><tspan style="font-weight: bold;">bias</tspan><tspan>〈10〉</tspan></text><line class="node" x1="0" x2="100" y1="0" y2="0" style="stroke: rgb(51, 51, 51); fill: none; stroke-width: 1px;"/></g><path class="node border" d="M5,0h90a5,5 0 0 1 5,5v40a5,5 0 0 1 -5,5h-90a5,5 0 0 1 -5,-5v-40a5,5 0 0 1 5,-5z" style="stroke: rgb(51, 51, 51); fill: none; stroke-width: 1px;"/></g></g><g id="node-id-14" class="node graph-node" transform="translate(53.21875,1383)" style="opacity: 1;"><g transform="translate(-28.1171875,-10)"><g class="node-item node-item-type node-item-type-activation" transform="translate(0,0)"><path d="M5,0h46.234375a5,5 0 0 1 5,5v10a5,5 0 0 1 -5,5h-46.234375a5,5 0 0 1 -5,-5v-10a5,5 0 0 1 5,-5z" style="stroke: rgb(0, 0, 0); fill: rgb(75, 27, 22); stroke-width: 0;"/><text x="6" y="14" style="font-family: -apple-system, BlinkMacSystemFont, &quot;Segoe WPC&quot;, &quot;Segoe UI&quot;, Ubuntu, &quot;Droid Sans&quot;, sans-serif, &quot;PingFang SC&quot;; font-size: 11px; text-rendering: geometricprecision; fill: rgb(255, 255, 255);">Softmax</text><title>14</title></g><path class="node border" d="M5,0h46.234375a5,5 0 0 1 5,5v10a5,5 0 0 1 -5,5h-46.234375a5,5 0 0 1 -5,-5v-10a5,5 0 0 1 5,-5z" style="stroke: rgb(51, 51, 51); fill: none; stroke-width: 1px;"/></g></g><g id="input-name-conv2d_input&#10;0" class="node graph-input" transform="translate(53.21875,10)" style="opacity: 1;"><g transform="translate(-45.140625,-10)"><g class="node-item graph-item-input" transform="translate(0,0)"><path d="M5,0h80.28125a5,5 0 0 1 5,5v10a5,5 0 0 1 -5,5h-80.28125a5,5 0 0 1 -5,-5v-10a5,5 0 0 1 5,-5z" style="stroke: rgb(0, 0, 0); fill: rgb(238, 238, 238); stroke-width: 0;"/><text x="6" y="14" style="font-family: -apple-system, BlinkMacSystemFont, &quot;Segoe WPC&quot;, &quot;Segoe UI&quot;, Ubuntu, &quot;Droid Sans&quot;, sans-serif, &quot;PingFang SC&quot;; font-size: 11px; text-rendering: geometricprecision;">conv2d_input
0</text><title>float32[1,32,32,3]</title></g><path class="node border" d="M5,0h80.28125a5,5 0 0 1 5,5v10a5,5 0 0 1 -5,5h-80.28125a5,5 0 0 1 -5,-5v-10a5,5 0 0 1 5,-5z" style="stroke: rgb(51, 51, 51); fill: none; stroke-width: 1px;"/></g></g><g class="node" transform="translate(53.21875,1444)" style="opacity: 1;"><g transform="translate(-33.9765625,-10)"><g class="node-item graph-item-output" transform="translate(0,0)"><path d="M5,0h57.953125a5,5 0 0 1 5,5v10a5,5 0 0 1 -5,5h-57.953125a5,5 0 0 1 -5,-5v-10a5,5 0 0 1 5,-5z" style="stroke: rgb(0, 0, 0); fill: rgb(238, 238, 238); stroke-width: 0;"/><text x="6" y="14" style="font-family: -apple-system, BlinkMacSystemFont, &quot;Segoe WPC&quot;, &quot;Segoe UI&quot;, Ubuntu, &quot;Droid Sans&quot;, sans-serif, &quot;PingFang SC&quot;; font-size: 11px; text-rendering: geometricprecision;">Identity
36</text><title>float32[1,10]</title></g><path class="node border" d="M5,0h57.953125a5,5 0 0 1 5,5v10a5,5 0 0 1 -5,5h-57.953125a5,5 0 0 1 -5,-5v-10a5,5 0 0 1 5,-5z" style="stroke: rgb(51, 51, 51); fill: none; stroke-width: 1px;"/></g></g></g></g></svg>