<svg xmlns="http://www.w3.org/2000/svg" id="export" class="canvas" preserveAspectRatio="xMidYMid meet" viewBox="0 0 311 1633" style="position: static; margin: auto; width: 157.69px; height: 828px;" width="122" height="1445"><rect id="background" fill="#fff" pointer-events="all" width="122" height="1445"/><g id="origin" transform="translate(5.511327743530273, 5.511327743530273) scale(1)"><g id="clusters" class="clusters"/><g id="edge-paths" class="edge-paths"><defs><marker id="arrowhead-vee" viewBox="0 0 10 10" refX="9" refY="5" markerUnits="strokeWidth" markerWidth="8" markerHeight="6" orient="auto" style="fill: rgb(0, 0, 0);"><path d="M 0 0 L 10 5 L 0 10 L 4 5 z" style="stroke-width: 1;"/></marker><marker id="arrowhead-vee-select" viewBox="0 0 10 10" refX="9" refY="5" markerUnits="strokeWidth" markerWidth="8" markerHeight="6" orient="auto" style="fill: rgb(238, 0, 0);"><path d="M 0 0 L 10 5 L 0 10 L 4 5 z" style="stroke-width: 1;"/></marker></defs><path id="edge-conv2d_input&#10;0" class="edge-path" d="M47.4609375,20L47.4609375,21.666666666666668C47.4609375,23.333333333333332,47.4609375,26.666666666666668,47.4609375,31.75C47.4609375,36.833333333333336,47.4609375,43.666666666666664,47.4609375,50.5C47.4609375,57.333333333333336,47.4609375,64.16666666666667,47.4609375,69.25C47.4609375,74.33333333333333,47.4609375,77.66666666666667,47.4609375,79.33333333333333L47.4609375,81" style="stroke: rgb(0, 0, 0); stroke-width: 1px; fill: none; marker-end: url(&quot;#arrowhead-vee&quot;);"/><path id="edge-sequential/conv2d/Relu;sequential/conv2d/BiasAdd;sequential/conv2d/Conv2D;sequential/conv2d/BiasAdd/ReadVariableOp/resource&#10;18" class="edge-path" d="M47.4609375,151L47.4609375,154.41666666666666C47.4609375,157.83333333333334,47.4609375,164.66666666666666,47.4609375,171.5C47.4609375,178.33333333333334,47.4609375,185.16666666666666,47.4609375,188.58333333333334L47.4609375,192" style="stroke: rgb(0, 0, 0); stroke-width: 1px; fill: none; marker-end: url(&quot;#arrowhead-vee&quot;);"/><path id="edge-sequential/batch_normalization/FusedBatchNormV32&#10;19" class="edge-path" d="M47.4609375,230L47.4609375,233.41666666666666C47.4609375,236.83333333333334,47.4609375,243.66666666666666,47.4609375,250.5C47.4609375,257.3333333333333,47.4609375,264.1666666666667,47.4609375,267.5833333333333L47.4609375,271" style="stroke: rgb(0, 0, 0); stroke-width: 1px; fill: none; marker-end: url(&quot;#arrowhead-vee&quot;);"/><path id="edge-sequential/batch_normalization/FusedBatchNormV33&#10;20" class="edge-path" d="M47.4609375,309L47.4609375,312.4166666666667C47.4609375,315.8333333333333,47.4609375,322.6666666666667,47.4609375,329.5C47.4609375,336.3333333333333,47.4609375,343.1666666666667,47.4609375,346.5833333333333L47.4609375,350" style="stroke: rgb(0, 0, 0); stroke-width: 1px; fill: none; marker-end: url(&quot;#arrowhead-vee&quot;);"/><path id="edge-sequential/max_pooling2d/MaxPool&#10;21" class="edge-path" d="M47.4609375,370L47.4609375,373.4166666666667C47.4609375,376.8333333333333,47.4609375,383.6666666666667,47.4609375,390.5C47.4609375,397.3333333333333,47.4609375,404.1666666666667,47.4609375,407.5833333333333L47.4609375,411" style="stroke: rgb(0, 0, 0); stroke-width: 1px; fill: none; marker-end: url(&quot;#arrowhead-vee&quot;);"/><path id="edge-sequential/conv2d_1/Relu;sequential/conv2d_1/BiasAdd;sequential/conv2d_1/Conv2D;sequential/conv2d_1/BiasAdd/ReadVariableOp/resource&#10;22" class="edge-path" d="M47.4609375,481L47.4609375,484.4166666666667C47.4609375,487.8333333333333,47.4609375,494.6666666666667,47.4609375,501.5C47.4609375,508.3333333333333,47.4609375,515.1666666666666,47.4609375,518.5833333333334L47.4609375,522" style="stroke: rgb(0, 0, 0); stroke-width: 1px; fill: none; marker-end: url(&quot;#arrowhead-vee&quot;);"/><path id="edge-sequential/batch_normalization_1/FusedBatchNormV32&#10;23" class="edge-path" d="M47.4609375,560L47.4609375,563.4166666666666C47.4609375,566.8333333333334,47.4609375,573.6666666666666,47.4609375,580.5C47.4609375,587.3333333333334,47.4609375,594.1666666666666,47.4609375,597.5833333333334L47.4609375,601" style="stroke: rgb(0, 0, 0); stroke-width: 1px; fill: none; marker-end: url(&quot;#arrowhead-vee&quot;);"/><path id="edge-sequential/batch_normalization_1/FusedBatchNormV33&#10;24" class="edge-path" d="M47.4609375,639L47.4609375,642.4166666666666C47.4609375,645.8333333333334,47.4609375,652.6666666666666,47.4609375,659.5C47.4609375,666.3333333333334,47.4609375,673.1666666666666,47.4609375,676.5833333333334L47.4609375,680" style="stroke: rgb(0, 0, 0); stroke-width: 1px; fill: none; marker-end: url(&quot;#arrowhead-vee&quot;);"/><path id="edge-sequential/max_pooling2d_1/MaxPool&#10;25" class="edge-path" d="M47.4609375,700L47.4609375,703.4166666666666C47.4609375,706.8333333333334,47.4609375,713.6666666666666,47.4609375,720.5C47.4609375,727.3333333333334,47.4609375,734.1666666666666,47.4609375,737.5833333333334L47.4609375,741" style="stroke: rgb(0, 0, 0); stroke-width: 1px; fill: none; marker-end: url(&quot;#arrowhead-vee&quot;);"/><path id="edge-sequential/conv2d_2/Relu;sequential/conv2d_2/BiasAdd;sequential/conv2d_2/Conv2D;sequential/conv2d_2/BiasAdd/ReadVariableOp/resource&#10;26" class="edge-path" d="M47.4609375,811L47.4609375,814.4166666666666C47.4609375,817.8333333333334,47.4609375,824.6666666666666,47.4609375,831.5C47.4609375,838.3333333333334,47.4609375,845.1666666666666,47.4609375,848.5833333333334L47.4609375,852" style="stroke: rgb(0, 0, 0); stroke-width: 1px; fill: none; marker-end: url(&quot;#arrowhead-vee&quot;);"/><path id="edge-sequential/batch_normalization_2/FusedBatchNormV32&#10;27" class="edge-path" d="M47.4609375,890L47.4609375,893.4166666666666C47.4609375,896.8333333333334,47.4609375,903.6666666666666,47.4609375,910.5C47.4609375,917.3333333333334,47.4609375,924.1666666666666,47.4609375,927.5833333333334L47.4609375,931" style="stroke: rgb(0, 0, 0); stroke-width: 1px; fill: none; marker-end: url(&quot;#arrowhead-vee&quot;);"/><path id="edge-sequential/batch_normalization_2/FusedBatchNormV33&#10;28" class="edge-path" d="M47.4609375,969L47.4609375,972.4166666666666C47.4609375,975.8333333333334,47.4609375,982.6666666666666,47.4609375,989.5C47.4609375,996.3333333333334,47.4609375,1003.1666666666666,47.4609375,1006.5833333333334L47.4609375,1010" style="stroke: rgb(0, 0, 0); stroke-width: 1px; fill: none; marker-end: url(&quot;#arrowhead-vee&quot;);"/><path id="edge-sequential/max_pooling2d_2/MaxPool&#10;29" class="edge-path" d="M47.4609375,1030L47.4609375,1033.4166666666667C47.4609375,1036.8333333333333,47.4609375,1043.6666666666667,47.4609375,1050.5C47.4609375,1057.3333333333333,47.4609375,1064.1666666666667,47.4609375,1067.5833333333333L47.4609375,1071" style="stroke: rgb(0, 0, 0); stroke-width: 1px; fill: none; marker-end: url(&quot;#arrowhead-vee&quot;);"/><path id="edge-sequential/flatten/Reshape&#10;30" class="edge-path" d="M47.4609375,1109L47.4609375,1112.4166666666667C47.4609375,1115.8333333333333,47.4609375,1122.6666666666667,47.4609375,1129.5C47.4609375,1136.3333333333333,47.4609375,1143.1666666666667,47.4609375,1146.5833333333333L47.4609375,1150" style="stroke: rgb(0, 0, 0); stroke-width: 1px; fill: none; marker-end: url(&quot;#arrowhead-vee&quot;);"/><path id="edge-sequential/dense/Relu;sequential/dense/BiasAdd&#10;31" class="edge-path" d="M47.4609375,1220L47.4609375,1223.4166666666667C47.4609375,1226.8333333333333,47.4609375,1233.6666666666667,47.4609375,1240.5C47.4609375,1247.3333333333333,47.4609375,1254.1666666666667,47.4609375,1257.5833333333333L47.4609375,1261" style="stroke: rgb(0, 0, 0); stroke-width: 1px; fill: none; marker-end: url(&quot;#arrowhead-vee&quot;);"/><path id="edge-sequential/dense_1/BiasAdd&#10;32" class="edge-path" d="M47.4609375,1311L47.4609375,1314.4166666666667C47.4609375,1317.8333333333333,47.4609375,1324.6666666666667,47.4609375,1331.5C47.4609375,1338.3333333333333,47.4609375,1345.1666666666667,47.4609375,1348.5833333333333L47.4609375,1352" style="stroke: rgb(0, 0, 0); stroke-width: 1px; fill: none; marker-end: url(&quot;#arrowhead-vee&quot;);"/><path id="edge-Identity&#10;33" class="edge-path" d="M47.4609375,1372L47.4609375,1375.4166666666667C47.4609375,1378.8333333333333,47.4609375,1385.6666666666667,47.4609375,1392.5C47.4609375,1399.3333333333333,47.4609375,1406.1666666666667,47.4609375,1409.5833333333333L47.4609375,1413" style="stroke: rgb(0, 0, 0); stroke-width: 1px; fill: none; marker-end: url(&quot;#arrowhead-vee&quot;);"/></g><g id="edge-labels" class="edge-labels"><g class="edge-label" id="edge-label-edge-conv2d_input&#10;0" transform="translate(77.84375,50.5)" style="opacity: 1;"><g transform="translate(-25.3828125,-5.5)"><text style="font-family: -apple-system, BlinkMacSystemFont, &quot;Segoe WPC&quot;, &quot;Segoe UI&quot;, Ubuntu, &quot;Droid Sans&quot;, sans-serif, &quot;PingFang SC&quot;; font-size: 10px;"><tspan xml:space="preserve" dy="1em" x="1">1×32×32×3</tspan></text></g></g><g class="edge-label" id="edge-label-edge-sequential/conv2d/Relu;sequential/conv2d/BiasAdd;sequential/conv2d/Conv2D;sequential/conv2d/BiasAdd/ReadVariableOp/resource&#10;18" transform="translate(80.84375,171.5)" style="opacity: 1;"><g transform="translate(-28.3828125,-5.5)"><text style="font-family: -apple-system, BlinkMacSystemFont, &quot;Segoe WPC&quot;, &quot;Segoe UI&quot;, Ubuntu, &quot;Droid Sans&quot;, sans-serif, &quot;PingFang SC&quot;; font-size: 10px;"><tspan xml:space="preserve" dy="1em" x="1">1×32×32×40</tspan></text></g></g><g class="edge-label" id="edge-label-edge-sequential/batch_normalization/FusedBatchNormV32&#10;19" transform="translate(80.84375,250.5)" style="opacity: 1;"><g transform="translate(-28.3828125,-5.5)"><text style="font-family: -apple-system, BlinkMacSystemFont, &quot;Segoe WPC&quot;, &quot;Segoe UI&quot;, Ubuntu, &quot;Droid Sans&quot;, sans-serif, &quot;PingFang SC&quot;; font-size: 10px;"><tspan xml:space="preserve" dy="1em" x="1">1×32×32×40</tspan></text></g></g><g class="edge-label" id="edge-label-edge-sequential/batch_normalization/FusedBatchNormV33&#10;20" transform="translate(80.84375,329.5)" style="opacity: 1;"><g transform="translate(-28.3828125,-5.5)"><text style="font-family: -apple-system, BlinkMacSystemFont, &quot;Segoe WPC&quot;, &quot;Segoe UI&quot;, Ubuntu, &quot;Droid Sans&quot;, sans-serif, &quot;PingFang SC&quot;; font-size: 10px;"><tspan xml:space="preserve" dy="1em" x="1">1×32×32×40</tspan></text></g></g><g class="edge-label" id="edge-label-edge-sequential/max_pooling2d/MaxPool&#10;21" transform="translate(80.84375,390.5)" style="opacity: 1;"><g transform="translate(-28.3828125,-5.5)"><text style="font-family: -apple-system, BlinkMacSystemFont, &quot;Segoe WPC&quot;, &quot;Segoe UI&quot;, Ubuntu, &quot;Droid Sans&quot;, sans-serif, &quot;PingFang SC&quot;; font-size: 10px;"><tspan xml:space="preserve" dy="1em" x="1">1×16×16×40</tspan></text></g></g><g class="edge-label" id="edge-label-edge-sequential/conv2d_1/Relu;sequential/conv2d_1/BiasAdd;sequential/conv2d_1/Conv2D;sequential/conv2d_1/BiasAdd/ReadVariableOp/resource&#10;22" transform="translate(80.84375,501.5)" style="opacity: 1;"><g transform="translate(-28.3828125,-5.5)"><text style="font-family: -apple-system, BlinkMacSystemFont, &quot;Segoe WPC&quot;, &quot;Segoe UI&quot;, Ubuntu, &quot;Droid Sans&quot;, sans-serif, &quot;PingFang SC&quot;; font-size: 10px;"><tspan xml:space="preserve" dy="1em" x="1">1×16×16×60</tspan></text></g></g><g class="edge-label" id="edge-label-edge-sequential/batch_normalization_1/FusedBatchNormV32&#10;23" transform="translate(80.84375,580.5)" style="opacity: 1;"><g transform="translate(-28.3828125,-5.5)"><text style="font-family: -apple-system, BlinkMacSystemFont, &quot;Segoe WPC&quot;, &quot;Segoe UI&quot;, Ubuntu, &quot;Droid Sans&quot;, sans-serif, &quot;PingFang SC&quot;; font-size: 10px;"><tspan xml:space="preserve" dy="1em" x="1">1×16×16×60</tspan></text></g></g><g class="edge-label" id="edge-label-edge-sequential/batch_normalization_1/FusedBatchNormV33&#10;24" transform="translate(80.84375,659.5)" style="opacity: 1;"><g transform="translate(-28.3828125,-5.5)"><text style="font-family: -apple-system, BlinkMacSystemFont, &quot;Segoe WPC&quot;, &quot;Segoe UI&quot;, Ubuntu, &quot;Droid Sans&quot;, sans-serif, &quot;PingFang SC&quot;; font-size: 10px;"><tspan xml:space="preserve" dy="1em" x="1">1×16×16×60</tspan></text></g></g><g class="edge-label" id="edge-label-edge-sequential/max_pooling2d_1/MaxPool&#10;25" transform="translate(75.203125,720.5)" style="opacity: 1;"><g transform="translate(-22.7421875,-5.5)"><text style="font-family: -apple-system, BlinkMacSystemFont, &quot;Segoe WPC&quot;, &quot;Segoe UI&quot;, Ubuntu, &quot;Droid Sans&quot;, sans-serif, &quot;PingFang SC&quot;; font-size: 10px;"><tspan xml:space="preserve" dy="1em" x="1">1×8×8×60</tspan></text></g></g><g class="edge-label" id="edge-label-edge-sequential/conv2d_2/Relu;sequential/conv2d_2/BiasAdd;sequential/conv2d_2/Conv2D;sequential/conv2d_2/BiasAdd/ReadVariableOp/resource&#10;26" transform="translate(78.0234375,831.5)" style="opacity: 1;"><g transform="translate(-25.5625,-5.5)"><text style="font-family: -apple-system, BlinkMacSystemFont, &quot;Segoe WPC&quot;, &quot;Segoe UI&quot;, Ubuntu, &quot;Droid Sans&quot;, sans-serif, &quot;PingFang SC&quot;; font-size: 10px;"><tspan xml:space="preserve" dy="1em" x="1">1×8×8×120</tspan></text></g></g><g class="edge-label" id="edge-label-edge-sequential/batch_normalization_2/FusedBatchNormV32&#10;27" transform="translate(78.0234375,910.5)" style="opacity: 1;"><g transform="translate(-25.5625,-5.5)"><text style="font-family: -apple-system, BlinkMacSystemFont, &quot;Segoe WPC&quot;, &quot;Segoe UI&quot;, Ubuntu, &quot;Droid Sans&quot;, sans-serif, &quot;PingFang SC&quot;; font-size: 10px;"><tspan xml:space="preserve" dy="1em" x="1">1×8×8×120</tspan></text></g></g><g class="edge-label" id="edge-label-edge-sequential/batch_normalization_2/FusedBatchNormV33&#10;28" transform="translate(78.0234375,989.5)" style="opacity: 1;"><g transform="translate(-25.5625,-5.5)"><text style="font-family: -apple-system, BlinkMacSystemFont, &quot;Segoe WPC&quot;, &quot;Segoe UI&quot;, Ubuntu, &quot;Droid Sans&quot;, sans-serif, &quot;PingFang SC&quot;; font-size: 10px;"><tspan xml:space="preserve" dy="1em" x="1">1×8×8×120</tspan></text></g></g><g class="edge-label" id="edge-label-edge-sequential/max_pooling2d_2/MaxPool&#10;29" transform="translate(78.0234375,1050.5)" style="opacity: 1;"><g transform="translate(-25.5625,-5.5)"><text style="font-family: -apple-system, BlinkMacSystemFont, &quot;Segoe WPC&quot;, &quot;Segoe UI&quot;, Ubuntu, &quot;Droid Sans&quot;, sans-serif, &quot;PingFang SC&quot;; font-size: 10px;"><tspan xml:space="preserve" dy="1em" x="1">1×4×4×120</tspan></text></g></g><g class="edge-label" id="edge-label-edge-sequential/flatten/Reshape&#10;30" transform="translate(69.5625,1129.5)" style="opacity: 1;"><g transform="translate(-17.1015625,-5.5)"><text style="font-family: -apple-system, BlinkMacSystemFont, &quot;Segoe WPC&quot;, &quot;Segoe UI&quot;, Ubuntu, &quot;Droid Sans&quot;, sans-serif, &quot;PingFang SC&quot;; font-size: 10px;"><tspan xml:space="preserve" dy="1em" x="1">1×1920</tspan></text></g></g><g class="edge-label" id="edge-label-edge-sequential/dense/Relu;sequential/dense/BiasAdd&#10;31" transform="translate(66.7421875,1240.5)" style="opacity: 1;"><g transform="translate(-14.28125,-5.5)"><text style="font-family: -apple-system, BlinkMacSystemFont, &quot;Segoe WPC&quot;, &quot;Segoe UI&quot;, Ubuntu, &quot;Droid Sans&quot;, sans-serif, &quot;PingFang SC&quot;; font-size: 10px;"><tspan xml:space="preserve" dy="1em" x="1">1×120</tspan></text></g></g><g class="edge-label" id="edge-label-edge-sequential/dense_1/BiasAdd&#10;32" transform="translate(63.921875,1331.5)" style="opacity: 1;"><g transform="translate(-11.4609375,-5.5)"><text style="font-family: -apple-system, BlinkMacSystemFont, &quot;Segoe WPC&quot;, &quot;Segoe UI&quot;, Ubuntu, &quot;Droid Sans&quot;, sans-serif, &quot;PingFang SC&quot;; font-size: 10px;"><tspan xml:space="preserve" dy="1em" x="1">1×10</tspan></text></g></g><g class="edge-label" id="edge-label-edge-Identity&#10;33" transform="translate(63.921875,1392.5)" style="opacity: 1;"><g transform="translate(-11.4609375,-5.5)"><text style="font-family: -apple-system, BlinkMacSystemFont, &quot;Segoe WPC&quot;, &quot;Segoe UI&quot;, Ubuntu, &quot;Droid Sans&quot;, sans-serif, &quot;PingFang SC&quot;; font-size: 10px;"><tspan xml:space="preserve" dy="1em" x="1">1×10</tspan></text></g></g></g><g id="nodes" class="nodes"><g id="node-id-0" class="node graph-node" transform="translate(47.4609375,116)" style="opacity: 1;"><g transform="translate(-41.6015625,-35)"><g class="node-item node-item-type node-item-type-layer" transform="translate(0,0)"><path d="M5,0h73.203125a5,5 0 0 1 5,5v15a0,0 0 0 1 0,0h-83.203125a0,0 0 0 1 0,0v-15a5,5 0 0 1 5,-5z" style="stroke: rgb(0, 0, 0); fill: rgb(51, 85, 136); stroke-width: 0;"/><text x="6" y="14" style="font-family: -apple-system, BlinkMacSystemFont, &quot;Segoe WPC&quot;, &quot;Segoe UI&quot;, Ubuntu, &quot;Droid Sans&quot;, sans-serif, &quot;PingFang SC&quot;; font-size: 11px; text-rendering: geometricprecision; fill: rgb(255, 255, 255);">Conv2D</text><title>0</title></g><g class="node-attribute" transform="translate(0,20)"><path d="M0,0h83.203125a0,0 0 0 1 0,0v30a0,0 0 0 1 0,0h-83.203125a0,0 0 0 1 0,0v-30a0,0 0 0 1 0,0z" style="stroke: rgb(0, 0, 0); fill: rgb(255, 255, 255); stroke-width: 0;"/><text id="initializer-sequential/conv2d/Conv2D&#10;15" xml:space="preserve" x="6" y="12" style="font-family: -apple-system, BlinkMacSystemFont, &quot;Segoe WPC&quot;, &quot;Segoe UI&quot;, Ubuntu, &quot;Droid Sans&quot;, sans-serif, &quot;PingFang SC&quot;; font-size: 9px; font-weight: normal; text-rendering: geometricprecision;"><title>float32[40,3,3,3]</title><tspan style="font-weight: bold;">filter</tspan><tspan>〈40×3×3×3〉</tspan></text><text id="initializer-sequential/conv2d/BiasAdd/ReadVariableOp/resource&#10;1" xml:space="preserve" x="6" y="24" style="font-family: -apple-system, BlinkMacSystemFont, &quot;Segoe WPC&quot;, &quot;Segoe UI&quot;, Ubuntu, &quot;Droid Sans&quot;, sans-serif, &quot;PingFang SC&quot;; font-size: 9px; font-weight: normal; text-rendering: geometricprecision;"><title>float32[40]</title><tspan style="font-weight: bold;">bias</tspan><tspan>〈40〉</tspan></text><line class="node" x1="0" x2="83.203125" y1="0" y2="0" style="stroke: rgb(51, 51, 51); fill: none; stroke-width: 1px;"/></g><g class="node-item node-item-type node-item-type-activation" transform="translate(0,50)"><path d="M0,0h83.203125a0,0 0 0 1 0,0v15a5,5 0 0 1 -5,5h-73.203125a5,5 0 0 1 -5,-5v-15a0,0 0 0 1 0,0z" style="stroke: rgb(0, 0, 0); fill: rgb(112, 41, 33); stroke-width: 0;"/><text x="6" y="14" style="font-family: -apple-system, BlinkMacSystemFont, &quot;Segoe WPC&quot;, &quot;Segoe UI&quot;, Ubuntu, &quot;Droid Sans&quot;, sans-serif, &quot;PingFang SC&quot;; font-size: 11px; text-rendering: geometricprecision; fill: rgb(255, 255, 255);">Relu</text></g><line class="node" x1="0" x2="83.203125" y1="50" y2="50" style="stroke: rgb(51, 51, 51); fill: none; stroke-width: 1px;"/><path class="node border" d="M5,0h73.203125a5,5 0 0 1 5,5v60a5,5 0 0 1 -5,5h-73.203125a5,5 0 0 1 -5,-5v-60a5,5 0 0 1 5,-5z" style="stroke: rgb(51, 51, 51); fill: none; stroke-width: 1px;"/></g></g><g id="node-id-1" class="node graph-node" transform="translate(47.4609375,211)" style="opacity: 1;"><g transform="translate(-37.5,-19)"><g class="node-item node-item-type" transform="translate(0,0)"><path d="M5,0h65a5,5 0 0 1 5,5v15a0,0 0 0 1 0,0h-75a0,0 0 0 1 0,0v-15a5,5 0 0 1 5,-5z" style="stroke: rgb(0, 0, 0); fill: rgb(0, 0, 0); stroke-width: 0;"/><text x="6" y="14" style="font-family: -apple-system, BlinkMacSystemFont, &quot;Segoe WPC&quot;, &quot;Segoe UI&quot;, Ubuntu, &quot;Droid Sans&quot;, sans-serif, &quot;PingFang SC&quot;; font-size: 11px; text-rendering: geometricprecision; fill: rgb(255, 255, 255);">Mul</text><title>1</title></g><g class="node-attribute" transform="translate(0,20)"><path d="M0,0h75a0,0 0 0 1 0,0v13a5,5 0 0 1 -5,5h-65a5,5 0 0 1 -5,-5v-13a0,0 0 0 1 0,0z" style="stroke: rgb(0, 0, 0); fill: rgb(255, 255, 255); stroke-width: 0;"/><text id="initializer-sequential/batch_normalization/FusedBatchNormV31&#10;8" xml:space="preserve" x="6" y="12" style="font-family: -apple-system, BlinkMacSystemFont, &quot;Segoe WPC&quot;, &quot;Segoe UI&quot;, Ubuntu, &quot;Droid Sans&quot;, sans-serif, &quot;PingFang SC&quot;; font-size: 9px; font-weight: normal; text-rendering: geometricprecision;"><title>float32[40]</title><tspan style="font-weight: bold;">B</tspan><tspan>〈40〉</tspan></text><line class="node" x1="0" x2="75" y1="0" y2="0" style="stroke: rgb(51, 51, 51); fill: none; stroke-width: 1px;"/></g><path class="node border" d="M5,0h65a5,5 0 0 1 5,5v28a5,5 0 0 1 -5,5h-65a5,5 0 0 1 -5,-5v-28a5,5 0 0 1 5,-5z" style="stroke: rgb(51, 51, 51); fill: none; stroke-width: 1px;"/></g></g><g id="node-id-2" class="node graph-node" transform="translate(47.4609375,290)" style="opacity: 1;"><g transform="translate(-37.5,-19)"><g class="node-item node-item-type" transform="translate(0,0)"><path d="M5,0h65a5,5 0 0 1 5,5v15a0,0 0 0 1 0,0h-75a0,0 0 0 1 0,0v-15a5,5 0 0 1 5,-5z" style="stroke: rgb(0, 0, 0); fill: rgb(0, 0, 0); stroke-width: 0;"/><text x="6" y="14" style="font-family: -apple-system, BlinkMacSystemFont, &quot;Segoe WPC&quot;, &quot;Segoe UI&quot;, Ubuntu, &quot;Droid Sans&quot;, sans-serif, &quot;PingFang SC&quot;; font-size: 11px; text-rendering: geometricprecision; fill: rgb(255, 255, 255);">Add</text><title>2</title></g><g class="node-attribute" transform="translate(0,20)"><path d="M0,0h75a0,0 0 0 1 0,0v13a5,5 0 0 1 -5,5h-65a5,5 0 0 1 -5,-5v-13a0,0 0 0 1 0,0z" style="stroke: rgb(0, 0, 0); fill: rgb(255, 255, 255); stroke-width: 0;"/><text id="initializer-sequential/batch_normalization/FusedBatchNormV3&#10;7" xml:space="preserve" x="6" y="12" style="font-family: -apple-system, BlinkMacSystemFont, &quot;Segoe WPC&quot;, &quot;Segoe UI&quot;, Ubuntu, &quot;Droid Sans&quot;, sans-serif, &quot;PingFang SC&quot;; font-size: 9px; font-weight: normal; text-rendering: geometricprecision;"><title>float32[40]</title><tspan style="font-weight: bold;">B</tspan><tspan>〈40〉</tspan></text><line class="node" x1="0" x2="75" y1="0" y2="0" style="stroke: rgb(51, 51, 51); fill: none; stroke-width: 1px;"/></g><path class="node border" d="M5,0h65a5,5 0 0 1 5,5v28a5,5 0 0 1 -5,5h-65a5,5 0 0 1 -5,-5v-28a5,5 0 0 1 5,-5z" style="stroke: rgb(51, 51, 51); fill: none; stroke-width: 1px;"/></g></g><g id="node-id-3" class="node graph-node" transform="translate(47.4609375,360)" style="opacity: 1;"><g transform="translate(-35.796875,-10)"><g class="node-item node-item-type node-item-type-pool" transform="translate(0,0)"><path d="M5,0h61.59375a5,5 0 0 1 5,5v10a5,5 0 0 1 -5,5h-61.59375a5,5 0 0 1 -5,-5v-10a5,5 0 0 1 5,-5z" style="stroke: rgb(0, 0, 0); fill: rgb(51, 85, 51); stroke-width: 0;"/><text x="6" y="14" style="font-family: -apple-system, BlinkMacSystemFont, &quot;Segoe WPC&quot;, &quot;Segoe UI&quot;, Ubuntu, &quot;Droid Sans&quot;, sans-serif, &quot;PingFang SC&quot;; font-size: 11px; text-rendering: geometricprecision; fill: rgb(255, 255, 255);">MaxPool2D</text><title>3</title></g><path class="node border" d="M5,0h61.59375a5,5 0 0 1 5,5v10a5,5 0 0 1 -5,5h-61.59375a5,5 0 0 1 -5,-5v-10a5,5 0 0 1 5,-5z" style="stroke: rgb(51, 51, 51); fill: none; stroke-width: 1px;"/></g></g><g id="node-id-4" class="node graph-node" transform="translate(47.4609375,446)" style="opacity: 1;"><g transform="translate(-44.140625,-35)"><g class="node-item node-item-type node-item-type-layer" transform="translate(0,0)"><path d="M5,0h78.28125a5,5 0 0 1 5,5v15a0,0 0 0 1 0,0h-88.28125a0,0 0 0 1 0,0v-15a5,5 0 0 1 5,-5z" style="stroke: rgb(0, 0, 0); fill: rgb(51, 85, 136); stroke-width: 0;"/><text x="6" y="14" style="font-family: -apple-system, BlinkMacSystemFont, &quot;Segoe WPC&quot;, &quot;Segoe UI&quot;, Ubuntu, &quot;Droid Sans&quot;, sans-serif, &quot;PingFang SC&quot;; font-size: 11px; text-rendering: geometricprecision; fill: rgb(255, 255, 255);">Conv2D</text><title>4</title></g><g class="node-attribute" transform="translate(0,20)"><path d="M0,0h88.28125a0,0 0 0 1 0,0v30a0,0 0 0 1 0,0h-88.28125a0,0 0 0 1 0,0v-30a0,0 0 0 1 0,0z" style="stroke: rgb(0, 0, 0); fill: rgb(255, 255, 255); stroke-width: 0;"/><text id="initializer-sequential/conv2d_1/Conv2D&#10;16" xml:space="preserve" x="6" y="12" style="font-family: -apple-system, BlinkMacSystemFont, &quot;Segoe WPC&quot;, &quot;Segoe UI&quot;, Ubuntu, &quot;Droid Sans&quot;, sans-serif, &quot;PingFang SC&quot;; font-size: 9px; font-weight: normal; text-rendering: geometricprecision;"><title>float32[60,3,3,40]</title><tspan style="font-weight: bold;">filter</tspan><tspan>〈60×3×3×40〉</tspan></text><text id="initializer-sequential/conv2d_1/BiasAdd/ReadVariableOp/resource&#10;2" xml:space="preserve" x="6" y="24" style="font-family: -apple-system, BlinkMacSystemFont, &quot;Segoe WPC&quot;, &quot;Segoe UI&quot;, Ubuntu, &quot;Droid Sans&quot;, sans-serif, &quot;PingFang SC&quot;; font-size: 9px; font-weight: normal; text-rendering: geometricprecision;"><title>float32[60]</title><tspan style="font-weight: bold;">bias</tspan><tspan>〈60〉</tspan></text><line class="node" x1="0" x2="88.28125" y1="0" y2="0" style="stroke: rgb(51, 51, 51); fill: none; stroke-width: 1px;"/></g><g class="node-item node-item-type node-item-type-activation" transform="translate(0,50)"><path d="M0,0h88.28125a0,0 0 0 1 0,0v15a5,5 0 0 1 -5,5h-78.28125a5,5 0 0 1 -5,-5v-15a0,0 0 0 1 0,0z" style="stroke: rgb(0, 0, 0); fill: rgb(112, 41, 33); stroke-width: 0;"/><text x="6" y="14" style="font-family: -apple-system, BlinkMacSystemFont, &quot;Segoe WPC&quot;, &quot;Segoe UI&quot;, Ubuntu, &quot;Droid Sans&quot;, sans-serif, &quot;PingFang SC&quot;; font-size: 11px; text-rendering: geometricprecision; fill: rgb(255, 255, 255);">Relu</text></g><line class="node" x1="0" x2="88.28125" y1="50" y2="50" style="stroke: rgb(51, 51, 51); fill: none; stroke-width: 1px;"/><path class="node border" d="M5,0h78.28125a5,5 0 0 1 5,5v60a5,5 0 0 1 -5,5h-78.28125a5,5 0 0 1 -5,-5v-60a5,5 0 0 1 5,-5z" style="stroke: rgb(51, 51, 51); fill: none; stroke-width: 1px;"/></g></g><g id="node-id-5" class="node graph-node" transform="translate(47.4609375,541)" style="opacity: 1;"><g transform="translate(-37.5,-19)"><g class="node-item node-item-type" transform="translate(0,0)"><path d="M5,0h65a5,5 0 0 1 5,5v15a0,0 0 0 1 0,0h-75a0,0 0 0 1 0,0v-15a5,5 0 0 1 5,-5z" style="stroke: rgb(0, 0, 0); fill: rgb(0, 0, 0); stroke-width: 0;"/><text x="6" y="14" style="font-family: -apple-system, BlinkMacSystemFont, &quot;Segoe WPC&quot;, &quot;Segoe UI&quot;, Ubuntu, &quot;Droid Sans&quot;, sans-serif, &quot;PingFang SC&quot;; font-size: 11px; text-rendering: geometricprecision; fill: rgb(255, 255, 255);">Mul</text><title>5</title></g><g class="node-attribute" transform="translate(0,20)"><path d="M0,0h75a0,0 0 0 1 0,0v13a5,5 0 0 1 -5,5h-65a5,5 0 0 1 -5,-5v-13a0,0 0 0 1 0,0z" style="stroke: rgb(0, 0, 0); fill: rgb(255, 255, 255); stroke-width: 0;"/><text id="initializer-sequential/batch_normalization_1/FusedBatchNormV31&#10;10" xml:space="preserve" x="6" y="12" style="font-family: -apple-system, BlinkMacSystemFont, &quot;Segoe WPC&quot;, &quot;Segoe UI&quot;, Ubuntu, &quot;Droid Sans&quot;, sans-serif, &quot;PingFang SC&quot;; font-size: 9px; font-weight: normal; text-rendering: geometricprecision;"><title>float32[60]</title><tspan style="font-weight: bold;">B</tspan><tspan>〈60〉</tspan></text><line class="node" x1="0" x2="75" y1="0" y2="0" style="stroke: rgb(51, 51, 51); fill: none; stroke-width: 1px;"/></g><path class="node border" d="M5,0h65a5,5 0 0 1 5,5v28a5,5 0 0 1 -5,5h-65a5,5 0 0 1 -5,-5v-28a5,5 0 0 1 5,-5z" style="stroke: rgb(51, 51, 51); fill: none; stroke-width: 1px;"/></g></g><g id="node-id-6" class="node graph-node" transform="translate(47.4609375,620)" style="opacity: 1;"><g transform="translate(-37.5,-19)"><g class="node-item node-item-type" transform="translate(0,0)"><path d="M5,0h65a5,5 0 0 1 5,5v15a0,0 0 0 1 0,0h-75a0,0 0 0 1 0,0v-15a5,5 0 0 1 5,-5z" style="stroke: rgb(0, 0, 0); fill: rgb(0, 0, 0); stroke-width: 0;"/><text x="6" y="14" style="font-family: -apple-system, BlinkMacSystemFont, &quot;Segoe WPC&quot;, &quot;Segoe UI&quot;, Ubuntu, &quot;Droid Sans&quot;, sans-serif, &quot;PingFang SC&quot;; font-size: 11px; text-rendering: geometricprecision; fill: rgb(255, 255, 255);">Add</text><title>6</title></g><g class="node-attribute" transform="translate(0,20)"><path d="M0,0h75a0,0 0 0 1 0,0v13a5,5 0 0 1 -5,5h-65a5,5 0 0 1 -5,-5v-13a0,0 0 0 1 0,0z" style="stroke: rgb(0, 0, 0); fill: rgb(255, 255, 255); stroke-width: 0;"/><text id="initializer-sequential/batch_normalization_1/FusedBatchNormV3&#10;9" xml:space="preserve" x="6" y="12" style="font-family: -apple-system, BlinkMacSystemFont, &quot;Segoe WPC&quot;, &quot;Segoe UI&quot;, Ubuntu, &quot;Droid Sans&quot;, sans-serif, &quot;PingFang SC&quot;; font-size: 9px; font-weight: normal; text-rendering: geometricprecision;"><title>float32[60]</title><tspan style="font-weight: bold;">B</tspan><tspan>〈60〉</tspan></text><line class="node" x1="0" x2="75" y1="0" y2="0" style="stroke: rgb(51, 51, 51); fill: none; stroke-width: 1px;"/></g><path class="node border" d="M5,0h65a5,5 0 0 1 5,5v28a5,5 0 0 1 -5,5h-65a5,5 0 0 1 -5,-5v-28a5,5 0 0 1 5,-5z" style="stroke: rgb(51, 51, 51); fill: none; stroke-width: 1px;"/></g></g><g id="node-id-7" class="node graph-node" transform="translate(47.4609375,690)" style="opacity: 1;"><g transform="translate(-35.796875,-10)"><g class="node-item node-item-type node-item-type-pool" transform="translate(0,0)"><path d="M5,0h61.59375a5,5 0 0 1 5,5v10a5,5 0 0 1 -5,5h-61.59375a5,5 0 0 1 -5,-5v-10a5,5 0 0 1 5,-5z" style="stroke: rgb(0, 0, 0); fill: rgb(51, 85, 51); stroke-width: 0;"/><text x="6" y="14" style="font-family: -apple-system, BlinkMacSystemFont, &quot;Segoe WPC&quot;, &quot;Segoe UI&quot;, Ubuntu, &quot;Droid Sans&quot;, sans-serif, &quot;PingFang SC&quot;; font-size: 11px; text-rendering: geometricprecision; fill: rgb(255, 255, 255);">MaxPool2D</text><title>7</title></g><path class="node border" d="M5,0h61.59375a5,5 0 0 1 5,5v10a5,5 0 0 1 -5,5h-61.59375a5,5 0 0 1 -5,-5v-10a5,5 0 0 1 5,-5z" style="stroke: rgb(51, 51, 51); fill: none; stroke-width: 1px;"/></g></g><g id="node-id-8" class="node graph-node" transform="translate(47.4609375,776)" style="opacity: 1;"><g transform="translate(-46.671875,-35)"><g class="node-item node-item-type node-item-type-layer" transform="translate(0,0)"><path d="M5,0h83.34375a5,5 0 0 1 5,5v15a0,0 0 0 1 0,0h-93.34375a0,0 0 0 1 0,0v-15a5,5 0 0 1 5,-5z" style="stroke: rgb(0, 0, 0); fill: rgb(51, 85, 136); stroke-width: 0;"/><text x="6" y="14" style="font-family: -apple-system, BlinkMacSystemFont, &quot;Segoe WPC&quot;, &quot;Segoe UI&quot;, Ubuntu, &quot;Droid Sans&quot;, sans-serif, &quot;PingFang SC&quot;; font-size: 11px; text-rendering: geometricprecision; fill: rgb(255, 255, 255);">Conv2D</text><title>8</title></g><g class="node-attribute" transform="translate(0,20)"><path d="M0,0h93.34375a0,0 0 0 1 0,0v30a0,0 0 0 1 0,0h-93.34375a0,0 0 0 1 0,0v-30a0,0 0 0 1 0,0z" style="stroke: rgb(0, 0, 0); fill: rgb(255, 255, 255); stroke-width: 0;"/><text id="initializer-sequential/conv2d_2/Conv2D&#10;17" xml:space="preserve" x="6" y="12" style="font-family: -apple-system, BlinkMacSystemFont, &quot;Segoe WPC&quot;, &quot;Segoe UI&quot;, Ubuntu, &quot;Droid Sans&quot;, sans-serif, &quot;PingFang SC&quot;; font-size: 9px; font-weight: normal; text-rendering: geometricprecision;"><title>float32[120,3,3,60]</title><tspan style="font-weight: bold;">filter</tspan><tspan>〈120×3×3×60〉</tspan></text><text id="initializer-sequential/conv2d_2/BiasAdd/ReadVariableOp/resource&#10;3" xml:space="preserve" x="6" y="24" style="font-family: -apple-system, BlinkMacSystemFont, &quot;Segoe WPC&quot;, &quot;Segoe UI&quot;, Ubuntu, &quot;Droid Sans&quot;, sans-serif, &quot;PingFang SC&quot;; font-size: 9px; font-weight: normal; text-rendering: geometricprecision;"><title>float32[120]</title><tspan style="font-weight: bold;">bias</tspan><tspan>〈120〉</tspan></text><line class="node" x1="0" x2="93.34375" y1="0" y2="0" style="stroke: rgb(51, 51, 51); fill: none; stroke-width: 1px;"/></g><g class="node-item node-item-type node-item-type-activation" transform="translate(0,50)"><path d="M0,0h93.34375a0,0 0 0 1 0,0v15a5,5 0 0 1 -5,5h-83.34375a5,5 0 0 1 -5,-5v-15a0,0 0 0 1 0,0z" style="stroke: rgb(0, 0, 0); fill: rgb(112, 41, 33); stroke-width: 0;"/><text x="6" y="14" style="font-family: -apple-system, BlinkMacSystemFont, &quot;Segoe WPC&quot;, &quot;Segoe UI&quot;, Ubuntu, &quot;Droid Sans&quot;, sans-serif, &quot;PingFang SC&quot;; font-size: 11px; text-rendering: geometricprecision; fill: rgb(255, 255, 255);">Relu</text></g><line class="node" x1="0" x2="93.34375" y1="50" y2="50" style="stroke: rgb(51, 51, 51); fill: none; stroke-width: 1px;"/><path class="node border" d="M5,0h83.34375a5,5 0 0 1 5,5v60a5,5 0 0 1 -5,5h-83.34375a5,5 0 0 1 -5,-5v-60a5,5 0 0 1 5,-5z" style="stroke: rgb(51, 51, 51); fill: none; stroke-width: 1px;"/></g></g><g id="node-id-9" class="node graph-node" transform="translate(47.4609375,871)" style="opacity: 1;"><g transform="translate(-37.5,-19)"><g class="node-item node-item-type" transform="translate(0,0)"><path d="M5,0h65a5,5 0 0 1 5,5v15a0,0 0 0 1 0,0h-75a0,0 0 0 1 0,0v-15a5,5 0 0 1 5,-5z" style="stroke: rgb(0, 0, 0); fill: rgb(0, 0, 0); stroke-width: 0;"/><text x="6" y="14" style="font-family: -apple-system, BlinkMacSystemFont, &quot;Segoe WPC&quot;, &quot;Segoe UI&quot;, Ubuntu, &quot;Droid Sans&quot;, sans-serif, &quot;PingFang SC&quot;; font-size: 11px; text-rendering: geometricprecision; fill: rgb(255, 255, 255);">Mul</text><title>9</title></g><g class="node-attribute" transform="translate(0,20)"><path d="M0,0h75a0,0 0 0 1 0,0v13a5,5 0 0 1 -5,5h-65a5,5 0 0 1 -5,-5v-13a0,0 0 0 1 0,0z" style="stroke: rgb(0, 0, 0); fill: rgb(255, 255, 255); stroke-width: 0;"/><text id="initializer-sequential/batch_normalization_2/FusedBatchNormV31&#10;12" xml:space="preserve" x="6" y="12" style="font-family: -apple-system, BlinkMacSystemFont, &quot;Segoe WPC&quot;, &quot;Segoe UI&quot;, Ubuntu, &quot;Droid Sans&quot;, sans-serif, &quot;PingFang SC&quot;; font-size: 9px; font-weight: normal; text-rendering: geometricprecision;"><title>float32[120]</title><tspan style="font-weight: bold;">B</tspan><tspan>〈120〉</tspan></text><line class="node" x1="0" x2="75" y1="0" y2="0" style="stroke: rgb(51, 51, 51); fill: none; stroke-width: 1px;"/></g><path class="node border" d="M5,0h65a5,5 0 0 1 5,5v28a5,5 0 0 1 -5,5h-65a5,5 0 0 1 -5,-5v-28a5,5 0 0 1 5,-5z" style="stroke: rgb(51, 51, 51); fill: none; stroke-width: 1px;"/></g></g><g id="node-id-10" class="node graph-node" transform="translate(47.4609375,950)" style="opacity: 1;"><g transform="translate(-37.5,-19)"><g class="node-item node-item-type" transform="translate(0,0)"><path d="M5,0h65a5,5 0 0 1 5,5v15a0,0 0 0 1 0,0h-75a0,0 0 0 1 0,0v-15a5,5 0 0 1 5,-5z" style="stroke: rgb(0, 0, 0); fill: rgb(0, 0, 0); stroke-width: 0;"/><text x="6" y="14" style="font-family: -apple-system, BlinkMacSystemFont, &quot;Segoe WPC&quot;, &quot;Segoe UI&quot;, Ubuntu, &quot;Droid Sans&quot;, sans-serif, &quot;PingFang SC&quot;; font-size: 11px; text-rendering: geometricprecision; fill: rgb(255, 255, 255);">Add</text><title>10</title></g><g class="node-attribute" transform="translate(0,20)"><path d="M0,0h75a0,0 0 0 1 0,0v13a5,5 0 0 1 -5,5h-65a5,5 0 0 1 -5,-5v-13a0,0 0 0 1 0,0z" style="stroke: rgb(0, 0, 0); fill: rgb(255, 255, 255); stroke-width: 0;"/><text id="initializer-sequential/batch_normalization_2/FusedBatchNormV3&#10;11" xml:space="preserve" x="6" y="12" style="font-family: -apple-system, BlinkMacSystemFont, &quot;Segoe WPC&quot;, &quot;Segoe UI&quot;, Ubuntu, &quot;Droid Sans&quot;, sans-serif, &quot;PingFang SC&quot;; font-size: 9px; font-weight: normal; text-rendering: geometricprecision;"><title>float32[120]</title><tspan style="font-weight: bold;">B</tspan><tspan>〈120〉</tspan></text><line class="node" x1="0" x2="75" y1="0" y2="0" style="stroke: rgb(51, 51, 51); fill: none; stroke-width: 1px;"/></g><path class="node border" d="M5,0h65a5,5 0 0 1 5,5v28a5,5 0 0 1 -5,5h-65a5,5 0 0 1 -5,-5v-28a5,5 0 0 1 5,-5z" style="stroke: rgb(51, 51, 51); fill: none; stroke-width: 1px;"/></g></g><g id="node-id-11" class="node graph-node" transform="translate(47.4609375,1020)" style="opacity: 1;"><g transform="translate(-35.796875,-10)"><g class="node-item node-item-type node-item-type-pool" transform="translate(0,0)"><path d="M5,0h61.59375a5,5 0 0 1 5,5v10a5,5 0 0 1 -5,5h-61.59375a5,5 0 0 1 -5,-5v-10a5,5 0 0 1 5,-5z" style="stroke: rgb(0, 0, 0); fill: rgb(51, 85, 51); stroke-width: 0;"/><text x="6" y="14" style="font-family: -apple-system, BlinkMacSystemFont, &quot;Segoe WPC&quot;, &quot;Segoe UI&quot;, Ubuntu, &quot;Droid Sans&quot;, sans-serif, &quot;PingFang SC&quot;; font-size: 11px; text-rendering: geometricprecision; fill: rgb(255, 255, 255);">MaxPool2D</text><title>11</title></g><path class="node border" d="M5,0h61.59375a5,5 0 0 1 5,5v10a5,5 0 0 1 -5,5h-61.59375a5,5 0 0 1 -5,-5v-10a5,5 0 0 1 5,-5z" style="stroke: rgb(51, 51, 51); fill: none; stroke-width: 1px;"/></g></g><g id="node-id-12" class="node graph-node" transform="translate(47.4609375,1090)" style="opacity: 1;"><g transform="translate(-37.5,-19)"><g class="node-item node-item-type node-item-type-shape" transform="translate(0,0)"><path d="M5,0h65a5,5 0 0 1 5,5v15a0,0 0 0 1 0,0h-75a0,0 0 0 1 0,0v-15a5,5 0 0 1 5,-5z" style="stroke: rgb(0, 0, 0); fill: rgb(108, 79, 71); stroke-width: 0;"/><text x="6" y="14" style="font-family: -apple-system, BlinkMacSystemFont, &quot;Segoe WPC&quot;, &quot;Segoe UI&quot;, Ubuntu, &quot;Droid Sans&quot;, sans-serif, &quot;PingFang SC&quot;; font-size: 11px; text-rendering: geometricprecision; fill: rgb(255, 255, 255);">Reshape</text><title>12</title></g><g class="node-attribute" transform="translate(0,20)"><path d="M0,0h75a0,0 0 0 1 0,0v13a5,5 0 0 1 -5,5h-65a5,5 0 0 1 -5,-5v-13a0,0 0 0 1 0,0z" style="stroke: rgb(0, 0, 0); fill: rgb(255, 255, 255); stroke-width: 0;"/><text id="initializer-sequential/flatten/Const&#10;6" xml:space="preserve" x="6" y="12" style="font-family: -apple-system, BlinkMacSystemFont, &quot;Segoe WPC&quot;, &quot;Segoe UI&quot;, Ubuntu, &quot;Droid Sans&quot;, sans-serif, &quot;PingFang SC&quot;; font-size: 9px; font-weight: normal; text-rendering: geometricprecision;"><title>int32[2]</title><tspan style="font-weight: bold;">shape</tspan><tspan>〈2〉</tspan></text><line class="node" x1="0" x2="75" y1="0" y2="0" style="stroke: rgb(51, 51, 51); fill: none; stroke-width: 1px;"/></g><path class="node border" d="M5,0h65a5,5 0 0 1 5,5v28a5,5 0 0 1 -5,5h-65a5,5 0 0 1 -5,-5v-28a5,5 0 0 1 5,-5z" style="stroke: rgb(51, 51, 51); fill: none; stroke-width: 1px;"/></g></g><g id="node-id-13" class="node graph-node" transform="translate(47.4609375,1185)" style="opacity: 1;"><g transform="translate(-47.4609375,-35)"><g class="node-item node-item-type node-item-type-layer" transform="translate(0,0)"><path d="M5,0h84.921875a5,5 0 0 1 5,5v15a0,0 0 0 1 0,0h-94.921875a0,0 0 0 1 0,0v-15a5,5 0 0 1 5,-5z" style="stroke: rgb(0, 0, 0); fill: rgb(51, 85, 136); stroke-width: 0;"/><text x="6" y="14" style="font-family: -apple-system, BlinkMacSystemFont, &quot;Segoe WPC&quot;, &quot;Segoe UI&quot;, Ubuntu, &quot;Droid Sans&quot;, sans-serif, &quot;PingFang SC&quot;; font-size: 11px; text-rendering: geometricprecision; fill: rgb(255, 255, 255);">FullyConnected</text><title>13</title></g><g class="node-attribute" transform="translate(0,20)"><path d="M0,0h94.921875a0,0 0 0 1 0,0v30a0,0 0 0 1 0,0h-94.921875a0,0 0 0 1 0,0v-30a0,0 0 0 1 0,0z" style="stroke: rgb(0, 0, 0); fill: rgb(255, 255, 255); stroke-width: 0;"/><text id="initializer-sequential/dense/MatMul&#10;13" xml:space="preserve" x="6" y="12" style="font-family: -apple-system, BlinkMacSystemFont, &quot;Segoe WPC&quot;, &quot;Segoe UI&quot;, Ubuntu, &quot;Droid Sans&quot;, sans-serif, &quot;PingFang SC&quot;; font-size: 9px; font-weight: normal; text-rendering: geometricprecision;"><title>float32[120,1920]</title><tspan style="font-weight: bold;">weights</tspan><tspan>〈120×1920〉</tspan></text><text id="initializer-sequential/dense/BiasAdd/ReadVariableOp/resource&#10;4" xml:space="preserve" x="6" y="24" style="font-family: -apple-system, BlinkMacSystemFont, &quot;Segoe WPC&quot;, &quot;Segoe UI&quot;, Ubuntu, &quot;Droid Sans&quot;, sans-serif, &quot;PingFang SC&quot;; font-size: 9px; font-weight: normal; text-rendering: geometricprecision;"><title>float32[120]</title><tspan style="font-weight: bold;">bias</tspan><tspan>〈120〉</tspan></text><line class="node" x1="0" x2="94.921875" y1="0" y2="0" style="stroke: rgb(51, 51, 51); fill: none; stroke-width: 1px;"/></g><g class="node-item node-item-type node-item-type-activation" transform="translate(0,50)"><path d="M0,0h94.921875a0,0 0 0 1 0,0v15a5,5 0 0 1 -5,5h-84.921875a5,5 0 0 1 -5,-5v-15a0,0 0 0 1 0,0z" style="stroke: rgb(0, 0, 0); fill: rgb(112, 41, 33); stroke-width: 0;"/><text x="6" y="14" style="font-family: -apple-system, BlinkMacSystemFont, &quot;Segoe WPC&quot;, &quot;Segoe UI&quot;, Ubuntu, &quot;Droid Sans&quot;, sans-serif, &quot;PingFang SC&quot;; font-size: 11px; text-rendering: geometricprecision; fill: rgb(255, 255, 255);">Relu</text></g><line class="node" x1="0" x2="94.921875" y1="50" y2="50" style="stroke: rgb(51, 51, 51); fill: none; stroke-width: 1px;"/><path class="node border" d="M5,0h84.921875a5,5 0 0 1 5,5v60a5,5 0 0 1 -5,5h-84.921875a5,5 0 0 1 -5,-5v-60a5,5 0 0 1 5,-5z" style="stroke: rgb(51, 51, 51); fill: none; stroke-width: 1px;"/></g></g><g id="node-id-14" class="node graph-node" transform="translate(47.4609375,1286)" style="opacity: 1;"><g transform="translate(-45.703125,-25)"><g class="node-item node-item-type node-item-type-layer" transform="translate(0,0)"><path d="M5,0h81.40625a5,5 0 0 1 5,5v15a0,0 0 0 1 0,0h-91.40625a0,0 0 0 1 0,0v-15a5,5 0 0 1 5,-5z" style="stroke: rgb(0, 0, 0); fill: rgb(51, 85, 136); stroke-width: 0;"/><text x="6" y="14" style="font-family: -apple-system, BlinkMacSystemFont, &quot;Segoe WPC&quot;, &quot;Segoe UI&quot;, Ubuntu, &quot;Droid Sans&quot;, sans-serif, &quot;PingFang SC&quot;; font-size: 11px; text-rendering: geometricprecision; fill: rgb(255, 255, 255);">FullyConnected</text><title>14</title></g><g class="node-attribute" transform="translate(0,20)"><path d="M0,0h91.40625a0,0 0 0 1 0,0v25a5,5 0 0 1 -5,5h-81.40625a5,5 0 0 1 -5,-5v-25a0,0 0 0 1 0,0z" style="stroke: rgb(0, 0, 0); fill: rgb(255, 255, 255); stroke-width: 0;"/><text id="initializer-sequential/dense_1/MatMul&#10;14" xml:space="preserve" x="6" y="12" style="font-family: -apple-system, BlinkMacSystemFont, &quot;Segoe WPC&quot;, &quot;Segoe UI&quot;, Ubuntu, &quot;Droid Sans&quot;, sans-serif, &quot;PingFang SC&quot;; font-size: 9px; font-weight: normal; text-rendering: geometricprecision;"><title>float32[10,120]</title><tspan style="font-weight: bold;">weights</tspan><tspan>〈10×120〉</tspan></text><text id="initializer-sequential/dense_1/BiasAdd/ReadVariableOp/resource&#10;5" xml:space="preserve" x="6" y="24" style="font-family: -apple-system, BlinkMacSystemFont, &quot;Segoe WPC&quot;, &quot;Segoe UI&quot;, Ubuntu, &quot;Droid Sans&quot;, sans-serif, &quot;PingFang SC&quot;; font-size: 9px; font-weight: normal; text-rendering: geometricprecision;"><title>float32[10]</title><tspan style="font-weight: bold;">bias</tspan><tspan>〈10〉</tspan></text><line class="node" x1="0" x2="91.40625" y1="0" y2="0" style="stroke: rgb(51, 51, 51); fill: none; stroke-width: 1px;"/></g><path class="node border" d="M5,0h81.40625a5,5 0 0 1 5,5v40a5,5 0 0 1 -5,5h-81.40625a5,5 0 0 1 -5,-5v-40a5,5 0 0 1 5,-5z" style="stroke: rgb(51, 51, 51); fill: none; stroke-width: 1px;"/></g></g><g id="node-id-15" class="node graph-node" transform="translate(47.4609375,1362)" style="opacity: 1;"><g transform="translate(-28.1171875,-10)"><g class="node-item node-item-type node-item-type-activation" transform="translate(0,0)"><path d="M5,0h46.234375a5,5 0 0 1 5,5v10a5,5 0 0 1 -5,5h-46.234375a5,5 0 0 1 -5,-5v-10a5,5 0 0 1 5,-5z" style="stroke: rgb(0, 0, 0); fill: rgb(112, 41, 33); stroke-width: 0;"/><text x="6" y="14" style="font-family: -apple-system, BlinkMacSystemFont, &quot;Segoe WPC&quot;, &quot;Segoe UI&quot;, Ubuntu, &quot;Droid Sans&quot;, sans-serif, &quot;PingFang SC&quot;; font-size: 11px; text-rendering: geometricprecision; fill: rgb(255, 255, 255);">Softmax</text><title>15</title></g><path class="node border" d="M5,0h46.234375a5,5 0 0 1 5,5v10a5,5 0 0 1 -5,5h-46.234375a5,5 0 0 1 -5,-5v-10a5,5 0 0 1 5,-5z" style="stroke: rgb(51, 51, 51); fill: none; stroke-width: 1px;"/></g></g><g id="input-name-conv2d_input&#10;0" class="node graph-input" transform="translate(47.4609375,10)" style="opacity: 1;"><g transform="translate(-45.140625,-10)"><g class="node-item graph-item-input" transform="translate(0,0)"><path d="M5,0h80.28125a5,5 0 0 1 5,5v10a5,5 0 0 1 -5,5h-80.28125a5,5 0 0 1 -5,-5v-10a5,5 0 0 1 5,-5z" style="stroke: rgb(0, 0, 0); fill: rgb(238, 238, 238); stroke-width: 0;"/><text x="6" y="14" style="font-family: -apple-system, BlinkMacSystemFont, &quot;Segoe WPC&quot;, &quot;Segoe UI&quot;, Ubuntu, &quot;Droid Sans&quot;, sans-serif, &quot;PingFang SC&quot;; font-size: 11px; text-rendering: geometricprecision;">conv2d_input
0</text><title>float32[1,32,32,3]</title></g><path class="node border" d="M5,0h80.28125a5,5 0 0 1 5,5v10a5,5 0 0 1 -5,5h-80.28125a5,5 0 0 1 -5,-5v-10a5,5 0 0 1 5,-5z" style="stroke: rgb(51, 51, 51); fill: none; stroke-width: 1px;"/></g></g><g class="node" transform="translate(47.4609375,1423)" style="opacity: 1;"><g transform="translate(-33.9765625,-10)"><g class="node-item graph-item-output" transform="translate(0,0)"><path d="M5,0h57.953125a5,5 0 0 1 5,5v10a5,5 0 0 1 -5,5h-57.953125a5,5 0 0 1 -5,-5v-10a5,5 0 0 1 5,-5z" style="stroke: rgb(0, 0, 0); fill: rgb(238, 238, 238); stroke-width: 0;"/><text x="6" y="14" style="font-family: -apple-system, BlinkMacSystemFont, &quot;Segoe WPC&quot;, &quot;Segoe UI&quot;, Ubuntu, &quot;Droid Sans&quot;, sans-serif, &quot;PingFang SC&quot;; font-size: 11px; text-rendering: geometricprecision;">Identity
33</text><title>float32[1,10]</title></g><path class="node border" d="M5,0h57.953125a5,5 0 0 1 5,5v10a5,5 0 0 1 -5,5h-57.953125a5,5 0 0 1 -5,-5v-10a5,5 0 0 1 5,-5z" style="stroke: rgb(51, 51, 51); fill: none; stroke-width: 1px;"/></g></g></g></g></svg>